<mxfile host="Electron" agent="Mozilla/5.0 (Windows NT 10.0; Win64; x64) AppleWebKit/537.36 (KHTML, like Gecko) draw.io/26.0.9 Chrome/128.0.6613.186 Electron/32.2.5 Safari/537.36" version="26.0.9">
  <diagram id="d1ab7348-05c3-a1e3-ca4d-12c340fd6b49" name="Page-1">
    <mxGraphModel dx="1793" dy="1882" grid="1" gridSize="10" guides="1" tooltips="1" connect="1" arrows="1" fold="1" page="1" pageScale="1" pageWidth="1169" pageHeight="827" background="none" math="0" shadow="0">
      <root>
        <mxCell id="0" />
        <mxCell id="1" parent="0" />
        <mxCell id="77TPbMftFl7pItSL4d7y-25" value="" style="group" parent="1" vertex="1" connectable="0">
          <mxGeometry x="436" y="-200" width="340" height="100" as="geometry" />
        </mxCell>
        <mxCell id="MSJdZvLmTwEto3zQjgk4-8" value="" style="fillColor=#CCFFFF;strokeColor=none;shadow=1;gradientColor=none;fontSize=14;align=left;spacing=10;fontColor=#717171;9E9E9E;verticalAlign=top;spacingTop=-4;fontStyle=0;spacingLeft=40;html=1;container=0;" parent="77TPbMftFl7pItSL4d7y-25" vertex="1">
          <mxGeometry width="340" height="100" as="geometry" />
        </mxCell>
        <mxCell id="MSJdZvLmTwEto3zQjgk4-7" value="" style="group" parent="77TPbMftFl7pItSL4d7y-25" vertex="1" connectable="0">
          <mxGeometry x="21.428571428571445" y="20" width="201.42857142857142" height="60" as="geometry" />
        </mxCell>
        <mxCell id="MSJdZvLmTwEto3zQjgk4-6" value="" style="strokeColor=#dddddd;shadow=1;strokeWidth=1;rounded=1;absoluteArcSize=1;arcSize=2;" parent="MSJdZvLmTwEto3zQjgk4-7" vertex="1">
          <mxGeometry width="137.14285714285717" height="60" as="geometry" />
        </mxCell>
        <mxCell id="MSJdZvLmTwEto3zQjgk4-3" value="&lt;div style=&quot;&quot;&gt;&lt;b&gt;Cache&lt;/b&gt;&lt;/div&gt;&lt;div&gt;&lt;font color=&quot;#b3b3b3&quot;&gt;Valkey&lt;/font&gt;&lt;/div&gt;" style="image;sketch=0;aspect=fixed;html=1;points=[];align=left;fontSize=12;image=img/lib/mscae/Cache_Redis_Product.svg;spacingLeft=40;spacingTop=-35;" parent="MSJdZvLmTwEto3zQjgk4-7" vertex="1">
          <mxGeometry x="16.588235294117645" y="9" width="32.65306122448979" height="27.428571428571423" as="geometry" />
        </mxCell>
        <mxCell id="MSJdZvLmTwEto3zQjgk4-9" value="" style="shape=image;verticalLabelPosition=bottom;labelBackgroundColor=default;verticalAlign=top;aspect=fixed;imageAspect=0;image=data:image/png,iVBORw0KGgoAAAANSUhEUgAAAyAAAADFCAYAAACsEZbEAAAACXBIWXMAAJnKAACZygHjkaQiAAAgAElEQVR4nOydB3gc1dX3xzYYG/cKtsENYWPZO+eOZmdVrVWXbMmSpdl1b2Bb7mBjbEOaIaSQNySEkPIS0hsvfIEU3lQCCSW8ISGEBEgglBR6M81gY2yd77m7K2tX2jKzO3NnZvf8nuc8yZOAZu69szPzn/O/50gSkRUIHWPRH25Hv34l+kM3oRZ6EP2hZ9CvH0It1INa6B3U9JfRrz+O/tAvUdOvQzW0BUuXz8u3Kcdg8BQMdJahFtqLfv0G9IfuQi30VHQu9PdQ049F/rtffxr9obsj/4wWvhjVcADD4SFOnz9BEARBEARBuBJUVkxFv34J+kN/RL9+HLUQZhV+/YXoS3hXNUrSIMmDYHD9MFTDIfSHfoj+0FtZz4Wmv4H+0M0RMad2n+r0uAiCIAiCIAjCcVALl6Om/zgn0ZFajDyNangnloWHSx4AS1ecgf7QVaiFXrd8LiIZo/BHsGrVOKfHSRAEQRAEQRDCwVJdRr9+h/Uv2kmFyIvo13e41ZKEgdWj0a9/Bv36u/bPBc+o6Jd7RZQRBEEQBEEQRE6gvGYEavrn0B96X4j4SIw/ob9Tc9MSoj+0ArXQ8w7MBd9Hssjp8RMEQRAEQRCEbfBN4qiFHnbgZTs+A/B+JAMgHRzs5FLzDAT6Q9c6OheR0K/H4vBQJ+eCIAiCIAiCICwH/eHlQixGhoWIfqtTNiRUumagX3/U8TnoEyH38/0nTswFQRAEQRAEQVgO+kPbUdNPOP+iPSB+j+rKiSKXHAPhYtT0/7hg7P0F2dOoLZ8jci4IgiAIgiAIwnLQH9rt+Mt1+niQbwIXJj78oVddMOZUIuQFVJefI2IuCIJwJwAwTVGUtYyxTzHGvgYAPwaAXwHA9wDgWlmWL5ZlWZEkyVEbK0EQBEEkBbXwKpdmPvrHb3jvDTuXEQOdZ6Gm/9sFY80UT6HaOYUuaYIoHAKBwGjG2KUA8HfGGBoJAHgFAL7JGHNVYQ+CIAiigIl07w50HXPBC7XR+JrNG84fcsEYjcYfsKjlNLvmgyAId1BUVHQaAFzBGHvdqPBIIUZ+pCjKDKfHQxAEQRQwCB1jUet8GgM6RsL5F2pjEQits2U+eKUpp8dmNvz65+2YC4Ig3IGiKPMYY3/ORXj0EyFvAkCn0+MiCIIgChQs7fw+lnYhBnj0ihDdmiZ6/tBL9r1462+jGp5u6Vz4u5bYJBCOoD/0DGqhHvsEWbjVyrkgCMIdMMYWA8A7VomPuDghy/IFTo+PIAiCKDAw0FmHpZ0YjX4ixFQ2RD+Bfv0+9Icuw0AnoNp2eiR4M0F7v/7/wFrrlf5PC86Ji4w/oV//GKpdlaiGx0T+vj900Na54Oeutp1u1XwQBOE8jDFgjL1lg/jozYQcVxSl3elxEgRBEAUChsNDsGzpo1jWK0BiIsR8NuRHqOnzB/x9v/4Nm8VH7MW7q8GS+eAND3M+l9BtqHaWDPzbXc22Zj/6RMjHrJgLgiCcR9O0Mxlj/7FLfMSJkDdUVaWKegRBEIT9YHn7Cixbin2RRoQkzYbo/+Zf+JP+bbWzRFxFLf2enOdCDY9BLfR6Di/+T6MWLk8p9PyhR8SIsdBbqC2dkOt8EAThPIyxW+wWH3FxtyRJg5weM0EQBJHHoCQNwrL2h7C8A7E8mQiJt2TFZ0NOvujeheWdk1P+fX/oZjHioze6qnOaDy18aQ4v/b/AsvD41HOhdwmdC79+ZS5zQRCE8zDGKgSKj94IOT1ugiAIIo/Bio6FWN6OUQESi/hsSDpLll//Oardp6bdS6Hph8W+dIduynoupIODc+j58QOe4Uj79/3698SKMf0VLA4PzXY+CIJwHgD4f6IFCAA8RFkQgiAIwjawou16rGjHSKQSIcmzIY9k6kSOml4v9oU7VmUqttnb9FwEumqzfNG/38imb3srgaWKMJXXJAiPUlxcPBIA3nUgA4IlJSVlTo+fIAiCyEN49gIrlhzCiiXYJ0JSCZF4EdJ5GAPhWRn/vhbeIP6FO/LSvSGr+fDrN5gXPKFXUQufmfFvB9cPE7L5fGDcks1cEAThPADQ5IT4iMU1To+fIAiCyEOwoq0cK9sQK7kAiRMh6bIhXIAElh409Pc1/YAjAsSvfy+r+dBC/zJ/rHC3ob+thqc7NBdvYjB4SjbzQRCEszDGLnVKgADAX2j9CYIgCMvBqtYPRAVIvAhJkQ05KUCWPody4whDf98f7nbkpVsLPW96LgLhWVm83D+dbg9Mwt+vaB/l0FwgBjrJSkEQHgQAPudgBuREMBgc5vQcEARBEHkGVrbehlWtmCBC+mdD+luySpdebPjvB8Ktzr10Z7aIJZyrFlpt/jjhS00dg2cjnJgLv36JmfMkCMIdAMC3HBQgPAsyoK8TQRAEQeQEVi7+R0SARKJXhKTKhvAsSMf7WBWeZPjvQ8dY1PRjzoiQcIupufCHPmr6GKXLZ5o6hqb/2CEB8lUz50kQhDtgjP2vwwKkxuk5IAiCIPIIXp4Vqxa/jwsXY0oRMjAbYrrRHwb0XzgjQPQLTZ2npv+PyZf6p03PhWOb8kP3mj1XgiCcBwB+7aQAkWW5zek5IAiCIPIIDLacFREfvXFShMRbsvptUC9v/3hWpW2Tdk+3/av/p0ydp6bfY+7vh35oei6ilbDMb3TPPf5l9lwJgnAeAPgBZUAIgiCIvAGrF8/D6kWICxclFyHJLFmVS5ZldSxuPYqIEIFCxK9/ydQ5+vU/mzzGZ7OaC1Vf6YAYO5TNuRIE4SyMsa84KUB8Pp+PrgGCIAjCMrC6RYsIkP4iJGU2hIuQtvKsjqUtnYBa1xMnO6iLeen+rrlz1J80dwz9imzmInasL4oVIKH3sz1XgiCcgzF2lZMCRFXVKbT+BEEQhGVgcJEfq1swGr1CJIMIKW87L+vjaUvnoNb5dFYixK8/i1roKZMC4dumzs8f+ofJl/qPZj0XweApqOk3ZismUAv9zuRcHMv2XAmCcA5FUbY6KECOqqpqqMw4QRAEQRgCa5vnYrAFI5EgQuItWf02qJe3K7lML6ptE1Hr+lWfCMkoRHjn8O9jWXi86T0amv5FU+emhR40KQSuzWkuJGkQauEPoqa/Z0KI/Q21cDn6Q9tNCrjXcjlXgiCcoaSkRHVKgADA/9G6EwRBEJaCFQ1TMdiM0UgjQuKzIRWtiy05dmlnOwa6/pg6G6IfQ3/oNtR0f9YWKb/+SVPn5A/dZVKA3GbJXKjLz4mILL/+bpqxPIp+/QIMh4dEz1W/0uRc/NOKcyUIQjiDAeB5h0TIQVpvgiAIwlL4yyzWNB8ZKEJSZUMiWZCLLT2H8q4ZGOjaiJp+Od80jv7QQdTCq3jGI+GfKwsPR79+3KRA2G7qXLTQd0z+/WcsnQt5zQjUwp28uSH69c/zKl7RTIc+oBEYaqEfmDzXu6w8V4IgxMEYu8YB8dGjKMo8WmeCIAjCcrCm6WGsacIEEZLWkrXoFieWAQPhOnP2q0gWpd7UMTT9w+aPsXyOfaNOY93y6y+azIDcIPo8CYKwBgCYyRh7T7D96me0fgRBEIQtYLDxpogAiUSvCEmSDekTIW/ybITo5eAlb02Lg7LwNFPHCITCWYicD9s36hTn6e/UzJ9naK/o8yQIwjoA4OMCxcdxRVFkWj+CIAjCFrCuYSfWNMYESCwyWbKqFq8R3rHdr79ge5dyZcVU0y/2vDqXYEGWVQlfVS8VeY4EQVhLcXHxUAD4nSAB8glaP4IgCMI2sLphHtY2YiSSipAkG9SrFj2BAkszoqZvziIz8fUsj/WY6WMFQvutH3WK8ytdcQZqoXdMiqQ3edlfUedIEIQ9MMYmMcb+bLMAuSNI9wuCIAjCbrC2/uk+ERIvRNJYsqpatgs5t8Dq0RjQn89CgGTXsd0fujaLLMgh3mjR+tEnOz/9hizO71YR50YQhP0AwFjG2C02ZT7+GAgERtM6EgRBELaDtfVXYG0DJhchKSxZCxe9igsbZ9l+blrnt030DOn74p+lLQrVcCCL/RU8brc7y4CBcCtq+gnzAqRLt/O8CIIQDwBsAYB3LRQgPykuLh5Ja0kQBEEIAWtrz8G6hp6oCIkXIhksWQtbHsaK9lG2nVeg8xIs7UIM8IiJEEMd1LOzX+Vkw4rGZ60bfb9zKl0+LyKsssnOFLWcZtd5EQThHD6f7yzG2GcZY4dzyHo8xxjbKEnSIFpLgiAIQihYV/cjrGvASKTMhiQTIc0/w8bGEZafT2nnCgwsPY6lnRgRIf2FSOqX7h7UwiynY5vtMp74wv9JlA4Otlh8zERNfyLb87HyXAiCcB+qqk5UFGUrY+xmAHglg+g4AQBP8H+WMbayqKiIPlAQBEEQzoB1dSVYV9+DdfUDRUhtJktW818w2DzTsh4XpR0HsKzjBJYtxagASSVCkggRv/6/OZ9DcP0w1EJZ7Ds5Gbeg2na6JfOhdlWa7vnRNxdHUO2cYsV5EAThGQarqjrF5/P5AKCGMdbBGGsAgEpeWresrEx4GXWCIAiCSAnW1/8wKkDiRYhhS9ZLWL1oXS5f/7G87Twsb/8ZlndgRHycjM5EIZLSkqWf4D0yrFhi9IcvykGA8Hgql70Xka7oka7w+rEczuHTVswFQRAEQRAEQdgCNjRMx7rawwkixKwli2dDqluWYDg8xPBxSztmYkX79Vje/j6Wt2NEgPRGKhGSzJLlD33FsrkIBk9BTf9rjiKEn9NdqOodRvdh8MxJxAJmtu/JwOzHs3buzyEIgiAIgiAIS8D6+ouxvg6xvleEZGPJipTqfQ4XLroeF7asxuoWBeuXTsBgcBhWtY7DhUtm4cLWZqxo+whWtN6LlUt6sGIJRqM9GklFSLwQ6SdCNP0lq0vhohquyqrqVPJ4Hf36NzAQWsf3qKC6cmIkyxHp6xEuRy28Df2hm1DT37bkeIFQ2Mq5IAiCIAiCIAhbiOzBqK/7cVIRMiAbYrBxIe+evnBxX1S19kVlWyyWRCNBhMQJkbSWrM4TqHU12zIfmn6FRQJEXPj1r9oxFwRBEARBEARhCxgMTsS62n9HRUhdBhFisHFhtRER0pZehKS2ZH3crkuBW8nQH7rTcVFhOPS/WrUBniAIgiAIgiCEgQ3V52Jd7UsnRUi2lqx02ZCqeCGSTIQYsWQtvdHqsrcD5kINj0F/6CEPiI/nUOmaYedcEARBEARBEIRtYF1dABtq30opQhy3ZHX8CovDQ0VcAlgWnoZ+/Z8utl29hv7OBSLmgiAIgiAIgiBsAxuqfdhQ82yfCLHSkrUouQhJmg3pJ0LKOn6EZWGh9ex5Tw2XZkKex1JdFjkXBEEQBEEQBGEbWF8/GxtqHk0QIY5aspZ8zkyZX0vnomrVOFftCfHrf0b/8rOdmAuCIAiCIAiCsI1ICd2G2muxoRazsmSly4YYt2S9ieXtK5xeZr7nBDX9APr1484KEP3btOGcIAiCIAiCyGuwsa4TG2r6KmQlCBFbLVk/5g0LJReBalcl+kN/cSDr8TRqepvT4ycIgiAIgiAIIWBj4whsqLkS62rfzM2SZWCDemXrX7FqkWtftmMd0y/MuXO5sXgd/eGPiN77QhAEQRAEQRCuAFurxmF97YexrvY5iy1ZPVi16G6sbm3njRElD4DB9cPQr+9Av/64DVar/6A/dBkGVo92epwEQRAEQRAE4TiRZn21tU1YX/uNqBgxasmKy4ZUNx/H6pb7cWHzh7GqdbbkYVDVS9EfuhY1/bEchMe/0K/fgIGuWrv7nBCEXYTD4SGapk3w+XyzS0pKVEVR6mVZ7lIUZQUAdMdiDwAc4MEYu6T3f+f/DGMsLMtym8/nK1FVdYokSfRbIAjCMD6fbxy/fzDGOvj9hDG2SVGUrb33HADYwf+32L1miSzLdaqqnldUVHQaTTNBeAxsCp6HdXUbsLb+KqytvxXr6v8PaxoewZrGp7C24QmsbXgAg013YE3TDVjTuB+rWxZjoCUvv+6jsmIqavqyiHXKr38P/aG7UQs9iFroqUhEy/rei/7QTejXr0QttBr9XZ4WYET+EgwGhwFAJRcKjLHreQDAjYyxmwHgpwBwF2Psr4yx/zDG3mKMoZUBAMcB4DkAeIAxdlPsBaJJVdWJTs8NQRDOoarqqSUlJWWMsb0A8APG2J8B4I0c7jc9jLFnGWP3AMC3AWC/LMtV/B5I62ztRypFUaYCAFMUpUVRlLWyLF/MGPsvxtjX+bOFMfZLxtjd/L4PAE/yZwBj7BAPAHgz1bMi9v+/wBh7ij+XYs+N2xhjX+DrGfvIVcGPL3nEbUMQBFEQAMA0xliIMfZZAPg/xth7VosKC4OLnpsYY+tlWZ7s9NwRBGEvADCfMfZhxthvAOAdQfeZ9wDgdwBwNWOsMRgMnkLrnJHBiqIU8Ww2Y+wixth1APAzAPgHABxzwbMDGWOvx4TOlYqitGuadiatK0EQhCAURZkBAOczxr4DAP92wUMhl0wJz8gs419G8+UCYoydyxhrsDtkWZ5j1Tmrqnq6iHOOC03KM7glSNC610kuh39c4F+vAeBvLrnXvAwAXwaAGrKIRn/vABCIWWm/xMUaY+xtp9eJZRc8c/IZnvWntSUIgrAYn883FwCuYIw95oIbvh0vCDxd/+F8yIrEvrqKmLdrrDpnLgBjXxdFrflr+faywBi7Q9Bv5XeSS206jLFFMWuVa7OwMXvoB/m+E6kA4PdUWZabY1bYGwHg7zHrk+Nrwaxf2+e5oJJludTpeScIgvA8PC3u9I1dYBwFgG/yLILkUbwoQGLn/X2Ra+3z+XxSnsAtPoyxw4Lm7lLJRRQXF48EgN0A8C8X3D/MBP/i/5n58+efLeURsizPYoytA4AbuNhwwTyjQ3EHANRK+Qx2+HzY6duEnXA1LoWfYyc8ip3sP9ipHMKl7H1cWnIIl5Y8hx3Kvdihfhc71L3YrlVjuHio0+dOeBfeXR01vR4Dof2RjfPRTfLPoF8/hFroKPpDb6GmPxcrOfwb9Ie+jFpoF6rhKt4XxenzJ8x9nXaRB1dI8PECwLW8OpfXrhWvCpDYZk+R67xdyhO4pUzgb2O+5AJiWTO+V+A1p+8XFuwX+TwAjJU8iCzLC/hvKfYB4VkXzCe6KWL2skVSPoAHpcHYtWAxdvm+jrrvOdRlxC6IC4bY2RsK4lIeJdHo4KFGo119G9v9P8Il6koMl1HTOiLztRdYPRr9+gXoD/0S/fqRHHqWvIF+/VbUwhu4kKGpdz+MscedvpE7FK/zaitesut4VYCoqjpGsHXmf6Q8gWcABM3ZU5ILiFmt8u3r+os8c+C1SksCN/Z7OgDgx6qqTpe8CIaLx2N4waWoz/8nhnwYCZ2HHI0uOYMIiRciapwQ8SMu8b+B7f6rsTNwlpRn8CaFWN44GSub52Nlaw1WLV6JVYsvxKrWA1i5+ENY1XoVVrRdhZWtX8aKtuuxYsm3sKLtZqxoj0ZZ+7exrP16LOv4Apa1X4VlHZ/E0o4DWNp5ALWlW7G0Q8fSpVVY2nUuymtGSHkIli6fiZr+RdRC79jSuV3TP4dKuMjpcRKpYYz9xOkbuMNxZ6wMo+vxqgCJnfvtAl8InpPyhNi+BxFz9jknx8l7BfHCES64H9gZd/M9d5JHIAHCzKwtt0nu9UxVNGwpOg3D8y/BUPEhDM9HDC9ADPVGPxHSPxsSL0LSZUM6/L1C5D1c4r8Wl3rHdoBlZcOxtgkw2BjCmoYPYE3TN7C66XYMNv0Vq5tfiDUvjHZPj3ZQR1y4OBpVrXHRhljZG0sQK3qjPRrlHX1RtjQuOhFLeXRFI9B5GLWuJzCg34ta1y2o6degpm+NNAtUO3mTNM+A0DE21izxmA3Co39W5Bhq+nXIwpOcHjcxEAD4tAsezI4GALzCS0S6/frwuADZKXJNuX1E8j6DAeBVEfPFm4Q6NUhZlpfn2LPDS/EWtyRKHoAECDO9vrzXiKqq50huBpfNrcVw8T9xWTFGIiJAkoiQAdmQLCxZvdmQaBzCJYGNPHsguQRsazsd6+oWYl3dRVhX9yWsbbgdaxv+jbUNPX0d1JN0T48EFyApREh/IRIvQir7i5D2DCIkJkQCPPS+6G8/0vT70a9/C/2hy9Cvd6Eadl1aDv1dS9Afesl+4dEv/PqbqIa2OD1+IpFYF2CnH8puCN547EI3Xx9eFiC8xLPg9dwreZxYB2/b54q//DtRrjpWovkrLvjtOxHXFRe7e78uCRCW7dq+DgCtktvgm3Rx2Xkfx2XzTuDyeVHxMUCExAuRJCJEz8GSFc2GnMA2v2Ob9LC+fjbW167Dhtprsb72XqyrPYr1dRiJuvpYNESjlkevCIkXIslESLbZkCQiJEGI9BMh/YVI5pfv59Efug01/XL0dzU4uTcCta5q1PT3hIuPRCFyK5aFxzs1B0QiiqJUu+Bh7JoAgH1uvUa8LEA4vDu1wHX8leRx+LWYr3tmYr1NHnH69+5w3O/m8uAkQFgu95/jiqJsldwCrp8xFlfMvQtXnIe4nMe8aCyLFyLJRIhFlqz2kuORallLtPlC92nUVyvYUP0BbAz+Chur38DGGoxEA4/aaPQKkEjUJwqReBGSMhvSkj4bUrXYBktWvAjRzVmS/KE/ol//fCRLElg9WtR6RNZEXX4OavqNqIV6nBMi+r+xdPk8keMmkrNgwYIzXPAgdlXwWv5uvF68LkBi/WZEreER/oVd8jCMsV8ImqvVIsfFeymIspZ5IB7z+Xyu3KNLAoTlRyYWw8Vn4sq5D+GKuRgRIP1FSMpsiEWWrKXKD7FNPU/IWBsbR2Bj5RJsXng9NlU9g03V2BdBxEYeSURIghCpz5ANyWTJarHOklWerSXLcEbgOPr1ByIZktKwKsoeh/7OBdHMjGOZkEOohctFjJVIj+BGcZ4IRVHWuu268boAKSkpUQWv42LJoxQVFZ0mov8HALxfXFwsLCOtKEqLwL4mXol/unHfAAkQZtVvbKez4mPFnCdw5RzElVyA9EavCInPhlhuyXoRlypdto+xuWIuLqq8DFsq78aWyvexpQqxeWFcJBMh8UIkmQiJFyJesmRlKUT64l+R3hp8r0Zw/TDb104NN6I/9JBDmZC30a9X2D1GIj2Msd+74CHsqog9fMFN147XBQgvQ8oYe0bgGn5e8iixF3URc/RbUWPimZZC6ztkYh2e47Y0yUWQAGFW2rHahS8grp8xDFedex+uOhejAiSJCMnWkhXKaMm6GdvUibaNbXH5DFxUth8XVzyIiyoQF1VGo4VHVV/EC5F4EZIuG5KzJavZWUtWttmQ5H01vor+cBClg4Nt3ZvkD1+Emn5YfCYk9CqV6nUWAPiW0w9gNwYAPOnz+cZJLiEPBAgfwxcFrt8Tkkfhm5TzySLCGNsYK/Tg+O/arcGvV5fdb6gPCLNsfd+WZXmOJHT/w+pzvhsRH71xUoSkyoZYYsl6Ebtk3ZYxtbSchq3lYWwtvQ0Xlx3HxeUYDS5AeqNXiKQQIc02W7JqnLZkmdqgbuZF/Zlo6dwws2NtI+vLe574Q3eJFyH6o6iGx9g1LiI9fM+D0w9ftwYXZ265fvJBgMiy3Cx4Dc+VPAhj7GkR8yPipYiXneVfgZ3+LXshAODn4XB4iOQCSIAwq9f2j8KqzeGq2QdxdRFGYhWPXiGSSYTkYMnqkm/GldZnPbBFPQdbSz+LbYHXsK0UsbWsL+JFyEkhkiQb0lwl0JLVJNCStdRuS1YyMfJHVMM7saJ9lC3COZoNEV0t6xarx0IYgzEWcvrB6+LoAYBKN1xL+SBA+N4GAHhT1PopirJL8hgAMF/Q/Dxm91gYYw1kuzK9LldJLoAECLP8NwcAn7R94XDtrDCuOacHV58TFSAnhUiKbEiulix9wcuo+zosH0ebVo9t2o+xLXAClwQQ23iUYmoREp8NsdCS1WCzJWuhlZYsCzeoZwzeeyT0aTv6jUQ2xPv1x4WKkEB4o9XjIDLj8/l8ol4IPRp/dsNXyXwQIBzG2M2i1g4AfiZ5DAA4IGhuPi2g1C4VuDC/Nj2yLNu+dzcTJECYHb+7E4yxoG2LhmvOKcLVs9/BNbMR13AB0hsZREjWlqz5f8Rw8XRLv4B3+JfgEv/90d4hGuISHgEcKELihUgyEZIqG2K3JatRoCWrwxlLVqIQORGpaGXxhm6eYUF/6GZxIkQ/jP7wXCvHQGQmGAwOi90YhbwUejEAYLPT11K+CBC+GVngur1bVlY2XPIQjLG7RcwN7wFk1xiKi4tHMsYed/p369UAgBec3g9CAoTZtb4P2/pBC9fM7MY1s947KUJOCpFkliwzG9T7iZBQ8XcwbM3NFQ9Kg3EpW4kdJY/0654eJ0K0gSIk22yI3ZasWpstWRUusmQlvsTfg1q406pyvhFBGgjtj5QLtl+EvI6aXm/FeRPm4KUgnX7oujkA4B+SJNlWCKKQBIiqqmMYY++JWjteUUryCLwkLi+NK+B6fiUYDJ5i1zgYY19z+jebB3G95CAkQJida7vJ1sXDtbP9uHb201EREp8NscKSNe99DBcfsOxc21kDdih/Smhc2L+Den8Rks6SlS4bIsSS1SDQktXuIktWQjyMgVDYMiGidTWjX3/TxvN9kDdJtOJcCfc2PfN4LHLy2soXARIby89ErRsAXCt5BIHZIdtebgGg0wW/1XyxYlXZtU4G1pGqYDHb1vbFuXPnWr6HNwFcOWcirp3184EiJEU2xIgla9m85zB8niUN3LADGHay3/Q1LozvoJ5MhJixZJV5z5JVbbMla0A2RIi16fe8jK8l14tfV9CvP2v5OfpDXxHR84RIDX9Jy/GGeggA/gAAP+L9FxhjlwHABv4yAgC1Pp+vxOfzzebBGJvE7QW9wbuxx/4/vhdlMf86xBj7DGPsXm6hccGLQG/8wslrKJ8ESKwsq8jslScAgO95OSvEu3ozxl5zwW81LwIAHhVWOakfJECY3f1DwacAACAASURBVOv7YdsXMWJhWTPzAK6ZfTxlNsS4JetpXF6U81di7ICx2AXXYqd8PKFxYf8O6vHZELstWS1WWrLqBVqylrjcknXyJf82KzIMfMM7avqT1pyTfgS1kL2pSMIQjLHtBm+a7/FygvwLKgBsAYAaLiDs3J8S+yp8pwv6CPTMnz//bKcuqXwSIKqqThRhNeoNRVGKJJfDLVGCXt5fLy4uHmpTo8k7HP6NngwAeB4AvskYu0hRlHpFUWb031fB96ooijJVUZRyAFjGf2MA8H9uKhssy/IFUoEKEAB4AwD+xhi7hzH2QwD4Kq8kxQs19IudsixfHCvgcJDfwxhjN8U+Yr3i9DhSxEs2/Q4Hgqtn1OCa2S+kz4ak3aD+NwyfOy1nMRRacD52+V5JaFw4sIN6chFiypJVWhiWrErPWLJ4HEW//jEsDud00aN/+dmo6U/kKD4eRzXsy+U8COvgD+gkN3/+EP4TY+y/+SZsnsVw6mscBwAYAHzf4ZeD7Q6OP28ESGw8vxa4bhdKLodnCkXMBQB826bz3+Dg77I3XmSMfUqWZYULomzHwkUJ/0LNGHvGDQ0KnajCJ0qA8A9aAPCDWOb8Ui4EFUXxa5o2waqxxDLvK2Mi5pjTaxoXKyVR4LqzpuGamfcmiJB02ZCTe0LOfYDbuXI6dri4CEO+2xMbF8oZRIjLLVnpsiHCLFltXrNk8WzII7zMbk7XkxY+M9JAMLvj/5AaD7oLbp3gL/axh8HVsiy3BQKB0ZILURRFZoz9xqEHxi+dGne+CRDG2LZCsc+5rPu55SX7eWaBf9F16DfJ4z88U2r1BxLetyZ2nf7HwbHxl/TVUp4KEJ/PJ7TyJWNsEgBc7oYS0QDwW5FjlzAYPAXXzroc18zuMWTJWll0F64uyvpFAMPhIRhecCmGFhw92bwwXoT0dVCPhlFLVkcmS1ZAoCWrxluWrDIXWLI0/Rj6wx/h12PW11bpijMim92NC4/3UdMtK55AWMogXp3IS3PK0+4iqynF4j2nhFm+CRBVVacILP98VJblEZJ7GSToa/vbdpQlju3ZQgeCXz9Xqap6umQj/NqJfaE/4dReENFV+PJVgPQCAGMZY591QQn6Ykk0uG5GJ66d/UYGS9ZvMXxW1jcLXD53JoaLfzugcWH/Dur9RYiTlqxFVliyzGxQz9WS1eplSxYXBX9BLcxyEiH+0D8MCJ5/oxoOZHscgkgGrxLDGHtL5ANDluUlTqxGvgkQkT0v7PrybxUAEBA0Bzdbfe6qqk4HgCMif4NxdqsGSSAA0MT3JTgwVuHXb74LkF74PkYnrXYA8FHJCXDVzBm4Zub9KSxZf8VV07NuRIPLi8O4rPitxMaF8UIkiQjRrbRkmdmgnqsly8AGdbJkpduPcQQDoXVZX2v+rtmo6S+nETm/xvLOydn+fYLI9AARWS0LAD7uxIrkowABgN2F0lchHfwrvog5kGV5udXnDgA3CFzD3ngMAGZKDsCr9QHAc6LHzCsMihxnoQgQDr+W+F4bB65jHr+XnALXzxiGa2fegGt7RUhEiPwL1884M2uL17J5V+HyeT0JjQuXJRMheWLJarLZkpUuG1K1OE8sWZEsxfXZWrJQDVdFNrknCpvjqOmXo3TQ0QZuRP4jeD/BnU6MMR8FCP96LrC62TO5bEy2ExFdw3mWwureA7Gyu6JtkA/yKmqS8/vQhO4h4JunRY67kARIXOGBZwVfy5FiL1ZuuM8KXDdrDa6dfRjXzH4XV52T1QZhXHveBFwx966BjQv7dVC30pKVLhtiiSWr4m1srmpIHsHEqE8X9akjGB/NxqKKR2sDVi26L/ueIa60ZP0Cq1ZllXlDf3g5aqGemJh5GQN6UzZ/hyCyYJDA5nZvO1SVJu8ECIcxdr/Ah33WdlO7kGV5gaCx/zgP9n48rWlaVh9nbbLuCBVffN+bwPEVlADhAEClE1Wy7MhMmgZXzfbhmllZ+Yt5fxBcMeexxMaF8UIkmQjxgCWrpfI9ycVgVcudxjeo51olS9gG9ScwEM5qY1Qk4+EP3Y3KiqnWzzZBpEZV1fNE9ZbgL42i1yJfBQgA7Bf1oAeAD0ouI1buVcT411t53jybInL/FQC8KsvyHMlFKIqyVnB/ovtFja0QBQiHN9EVuJ691/ZXJa+Cq85TccW5ryRpXNhPhMwTaMkys0E9gyUrGBwpuRRc2PKwUEuWqGyIXz+Egc6yrHrN5FBZiyBygTH2jXz9YpWvAkRV1XMEPuh/J7kMbikSMO5j/Zvw5YqiKFsFvqQd9fl8CyUXAgBfFjgPKEqEFaoACQaDpwDAAyLXlDH2V9sHFnk5WztlOp4/vQHXn70B10/fgeumH4jE2lltWf3NlXOqcNW5byRpXNgnROJFyHIPWrIWV7gubc7hextwYcsRy6pkZbRkie4Zoh9Gf1dWVUZQ07fykruRUENb0K+vQbWrEtWVjnp3ifyGdzQW8cAAgCtEjy1fBQiHMfZnQet23On9A/HIsjzLq/1rRK1ZbN32SC6Fly/nXdfzralmoQoQkc+RuOv7WDAYHCZZDV5wth83TPsAnj/tV7jh7Ldxw9kYjemI62OxbsY7uHbGPNN/e+XsKlx5zuG+DuqZRIhIS1aJhZas8rWSC8Ha5vm59QzxgCXLr7+L/nDQ9NwEwhvT7DN5CbXQD9Cv78BAeJY9q0MUKoyxR7xYzrSQBQgAfEjgw36N5BJkWb5Y0Ji7rTzvkpISVeB63Se6B4ZZ+PwKnI8fCxpTwQoQDm8SKGpNefDu75IV4PpJZ+L5Uz+M5097DC+Yhng+j7P6or8IWXf2NtPHWDMTcHXRobieIQM7qEe6qFtgyQo5bMlaVO5KfxwGm3aZ6xmSqyXLqQ3q+mGevTCd7fOHfmng7/egpt+D/nA3qm22NpMiCgNBL3WPiB5XPgsQvn9H4Avc9yWXwBi7V8B4jy9YsOAMi8/7C4LWq8fn85VILod/vQaAFwRdv29wm5DdYyp0ASLLcpuoe1IsNuV0wnjBmTPwgilfwo1nHsGNUxEv4DGtL5KJkPVn/4K/rJk6zprps3D17JeTNC5MLkIcsWSZ2aCewZK1uPxZPOi+LyAYbPp1yg7q+WbJ8odexdKuc03Nj9I1A7XQOyaO8RL69Q9gYLUjnaaJ/IDXdBfwEvCmA+PKWwEi2NLzmhNVzPrDqzmJ6MIMALdb/bLNGDskaK1ukjwCY+xKgV/Ly+0eT6ELkGAweApj7CVRa8pFfVYniuHiobh58kW46czDuGkK4sbemIoDhEhiNuQ9vGCqqcnH1UWjcfWsR5I0LoyJkFRCJNMGdYstWZ0WW7LayuslF4HBlrMw2HhiQM8QKyxZ6bIhTlqy/PrjWBYeb2qeNP2KLI7zAm+MaFaYE0SMwSIaExYXFwstjpHvAgQADoh62PNym5LDiNrELcvyBVaetyzLSwStUw8AzJc8Aj/XfKrmVugChAMAXxK4pr+SzIKbpqi46Yx/4OYzEDedGRdpREhfNuQq07aWNTNvw7WzsF/jwkQR4gpLFrPaknWL5CKwpvHTyRsX5r0l63YzjQVRXjMCNf25LK1fv0It7Iqa74S3ELQPxFRGMFcKQIDMFFXS1Klu9vHwjeECxnoUAMZaed68ZKigNfq55DEA4G+CfqO/EDCWghcgiqLUC1pPHk+bWiDsnrQLN086ipsnY0SARCKZCJkSJ0JiQuT8aS/iBRNMdSXFtTMuxnUzMSpAUomQFNkQKyxZ6bIhXVb2DEkiQhaXnsAlmiu+hmBd3RlY2/h2tHt6fAf1ZCLESkuWmQ3qttqxDpqaL79+QQ5ZlxcwEK6zbzWJfIQx9kO7HxiKolSLHFO+C5DYGO8T9HL7kOQgvCSuiIZnAPAjK8+bW9dE2VJkWW6WPIaovTEA8JzdYyEBIvXu7TkiaE2PFxcXDzWWidgy6TPYPQmxe3I0EkRIv2xIMkvW+VP2m7kYcMP0Elw3472IAEkQIbMSRYhrLFlgvSWrNWA+RWUDWNvwTaxtwIgA6Y2k2ZBcLVlL3GnJ8uvHUesy/PKFavep6Nf/mdPxAuGN9q4qkU8IelkP5+GYHBUgiqLsEjTGHlVVpzvcwM5z/Wp4pR5B6/OsG/bpmIUxFhI0P6hp2gQ7x0ICJAoA/FrUmvJiHFI68KB0CnZPuBG3TETcwgVIb/QKkRQiJD4bcsGUQ2ayH9itnorrpj+E62fwkr2YVIRkzIbYbcnKomdINpasxaWOllDE+voWrKvvwTouQHojnQjJwZKVLhviuCVLf8JM1apIyd3cjtmDqu7aWvCEuxC0n2C94DHlvQDhG7P5l0AR4+Rix6lxMsZuFTDGt1VVtbSyIADsE3QN/pfkQRRFmSFofniYLo9vBhIgUQDgclFrCgCtUvrMx4Sv4dYJGBUgMRFyUohkyoacFCAfTXmQZMfdcPZl0Z4hM3CACElnyVqTh5as1sBbuEgT0gl0wDoEg2dhXd3LWFeP0WiIRoIIMWjJqjZiybKyZ4gtmZCrDc9dWXh4rP9HbiKEMiGES+ryA8AWkYtRCAJE8BfHO50YHxcFgl7uvmv1uQPAz0SsjWh7o4UM4hXyRMwRAOywcyAkQMRntQBgs5QK3DruYxHxcTJ6RcjEgSIkVTZk45kneLnelAfpf8w1syfj+rPfSmhceFKIJBMh8Zas2QItWQuss2R1ZLJkBZ7ExZrQzcnY0jIa6+sewvo6jEavCIkJEbdYssoEWrL8ofcxEC42PId+/VMWHTP1VwKCiD40wgIeFrtFTnahCBBeD1/Qw/59u20syZBluUvE+HgfA4tPfRBj7HUB6/JOUVHRaZJHYYz9XtDv9L/tHAcJEEd6FCWvboZbxi3GbeN7cNt4jERaEZIiGxIVIab2MeCGs65PaFx4UogkyYZYYcla6RVLlvYQLim1tLlSyjVoahqP9bX/hw21GIlUIqTOaktWqwcsWbrhrqyoLZ8TbTyY83Ffpw7qRDoYY40CHhiXiVyFQhEgxcXF4xlj7wkaq1AbHYcx9h0B43rN0IZWE6iqeo6gl7C7JA/DGLtF0Dz91s5xkABJ6AdyVNCaXiv1B3eNPwu3jXsVt4+Lio8BIsSEJat78irJTGPDDWe9n9g9Pa6DekZL1iyBlqz5Ai1ZJ7MhT2J7wPAX+GzA+vo52Bh8FBtrouJjgAipyyBCCsCSpYYDhufTH7rLouP+HgV0gyW8ic/nWyjgYXG5yDEVigDhMMZuE/TAN/wBxQq4KBCRRWCMfcWrVhTee0HyMIyx6wT9Th+3cxwkQPoAgH8IuvZvlPqD28beitvHYkSARERInBDJaMmKEyKbzjiG3ePGSAbB86d+LrFxYTIRkm02xEJL1jIHLVmtgXewTdtkR9M6bA6uxYbgm9gYxIgAiYiQmuQiJFtLVrpsSNVib1iy/PqthudUC+2yTvjQpnQvUlZWNlxRlKk+n282DwBgJSUlav/gX1wBYFo2X3JJgHhegKwS9MA/Mnfu3FECx7VY0LhqvdrpGwB2Sh5GYEf0t+wcBwmQPhhjdwha0zv6iY/RTbhjDOIOLkBSiJB0lqyEbMgkw5veeJUsPH/a2/0aF0bDsCVrpkBLVrH1lqx02ZD+lqxW7R5sLTP8JT7t3DdWMGyq/jU2VSM2BaORSoSQJYsLmROohIsMza0anm6ZAPGH3kJlxVQr1pywBl46U5blBfxrKa+Yw79m8oZivDEgr12fQ4dy/tX4McbYPYyxb3D7k6IoOj9WMr84CRBvCxDeZV7UCxBjbKWoccWuXRE9IgbbcO43iVgPWZY93feJMfYBQdct8t+JXeMgASL2dxv77T6QWPVqx+iHowIkXoTEC5FMlqyEbMg+ySC4cer5AzqoJxUhSbIhVliyVtlsydJtsWRFeoXg4tIubGkxtYmN23mwqaoNmxf+BJsX9mDzQsRmLkB6o1eExAsRuy1ZZjao52rJyjUbon/C8Fxr+l8tFCFfNrPOhPXdqxVFWcEY+wz3bvPSn6IevnE37fcZY3/mthO+gVlRFBkAagQclyxYNiLqhZeXxJXE2a8OeVVAxn5jtq8HL8XM54o3a4zPlMqyPCdZppQHAFQyxhpSBQA0xQpTWB681wqvuhcX/0/g/e9cySZIgPTBGPuYoPV85ORBcceodtw5GiORVoQYtGRtGW/cK79xyp0JjQtPihC3WrLmCbRkGegZ0lr6OraW/hBby3bjotJGXBKYha1V4yKisiUwGlvLpmFzZQ22VGzDlsr/weaKV7ClCk9GRIAkESHpsiEFbcnSn0PpoKGvbqiFPmuZANFCRykLIrwiyKWMsZ8wxl4U+KDNRpTYfQwSIDYCAJ2CrpV37fyS3AtjbJGg8QRsOn9RHxeEf8TwathZrpgESB8AsEfQb/eJkwfFXaPuPSlAEkSIGUvWyWzIMVw/Y5hkANw2fRxunPJ+Qgf1eBFiKBvigCVruYssWQkd1HmUxaIccXFvVCAu6o3KaCQVIQvjREi1PZasdNkQK6pklWeqkmXFBvVwuaHrW9OXWShA+B6UTxk5LpF9c61YYz8hX0C9EiRA7CUYDA4TtGHb8o7hyWCMfU3ANfkkL5dr9bkDwFinf28UYq9bEiB9AMD5gq6/ZyIHxO2ji3DXqB7cNQpxJ49eIZJMhBiwZHVPeFAyCG48Y/mA7ulJsyFnGcuGCLFknSfQklVi3JLVK0La4kVIWaIIWdxfhMQJkeY02RCjlqz6ArFk+fWPGbq+la4ZlgoQLfQ8hsNDjP6+CGPErEzfFpFN8GKQALGfmK3O8zasmP3qNQHjOGjH+QPAfKd/bxRJ52CTHesdW3Mhe7B8Pt9cyeUAwFIRcwEAL0cOiBeOuAJ3jcSIAOmNpNmQsemzIVtjQmTLhG8aHSxuOuNLfd3T44VIJkvWWd6zZIUEWbLSipDy9CIkZTbEbkuWmZ4huVqyLOgZ4tfvM3yNa/orloqQgN6U5b2F6Icsy6WMsV/QAz/jw4IsWDYT8/aLePk8yvcceNxO1iPL8iw7zl9RlHq6H7hPBNlZMYwESB+8qpzQymZ44el/xQtHYiTihUj2lqwrJIPgpsl/SOieniwbYoUla52Vlqy5Ai1ZikBLVmVyEZI0G1Lgliy/fgSLw4ZKpkb6eFhqw6LN6LnCX8B4IyQAOO70g9ULQQJEDLzfQR58Tf6BgPO/08bzX+b0740i6RxcYuOaUwYkBmOsQtD1d1jCXSMn4UUjevDCEZhchJixZJ0UIhslA+BBaTBunnTkZOPCBCGSyZI1TaAl61znLFmdhWLJarLekpUuG2KFJSvQCYauc02/0WIb1t+NHJdIDgBsAIBX6SFPAsQNZXjjYYx9RNB1+Rs7zl9V1TG834iXu7rzv033BveJIAD4kF1rTgKkD0VR/OIEyIXDdbzodMSLuADpjX4ixLwly5BFBC+YMLWvg3oyEZLBknWBzZasdNkQYZYsJtCSVWGdJauhECxZ4U5D17mmf8JiAYKodk4xcmwisSkgANzg9IPUi0EZEHGlnrm9SMCanpg/f/7ZVp+/LMsXiHhxsbOSF2Nsm9O/N4qkc3ClXWtOAqQPxhgIuv4OS3jR8I9GBUgSEZLOkpU2GzK+VDIAdp9RmtA9fXO8EMlkyZoq0JJVZK0lK2yzJavdi5asRoGWLDMb1HPvTo6B0H7LBQjtAzEF3/zH647Tg50EiJszIJxYjxnbXwB480wbzv12Aef+DclGZFm+mO4T7hNBAHC1XWtOAqQPxlixOAGye/j/4O7hMQHSX4hksmSl6BmyY5xPMgB2T2pJ7J7eX4TYYMlab7Mla4XVliwQaMkqF2jJMtkzxJWWLN3QXif0h7ZbLkC00C4jxyaiX3R4xQ2nH6BeDsqAiIMxtlHQuv7ZyvPmjfQE7akKSjYCAB90+vdGkXQOvmDjmtMekMT+V6IyIKf9MSJAUooQM5asXiEyukgyAHaP7+rXPR2NW7KmCLRkneO8JavLZktWq9OWrAaBlqx2ayxZft3QFxkMhNZZLkD8oWuNHLvQAQCuPl6hBzoJEK9kQAKBwGhRL0S85KzHGpj9047eH/3G8XG6X7hPBAHAl2xccxIgjgiQ3cOexN3DogJkgBDJZMlKsUF9y5iZkgFw63g9sXt6umyIg5asNU5asmSBlqwygZasOmssWdVOWrL0zxm6zlV9pfUZEP3bRo5dyMTq+R9y+sGZD0EZEOHX7vcFre3HLDznP3i190c8jLHPOv17o0h6DyIBkn8CZOhLuGcYRiKpCMnCkmU0A7J1XHO0eWGvCJk4UISky4YIs2TNFmjJWmCdJavDZktWi1ctWUussWT5Qx81dJ1r+nrrMyC6rc3EvE5xcfF4AHiCHuQkQLyWAeEoitIi6Np92oqMgizLc7zc+yMeAPgc3TfcJ4JIgOSjALn4tLdxz2nYJ0LihUgmS1aKDeq7RhYbGShuG1fR10E9mQjxsCVrpVWWLJ9AS1apQEtWlj1DrLBkVVpkyfKHDW3iRC20yYY9ILaU0cwHwuHwEAD4mdMPzHwKyoAIZzBj7FkRa6soSnmuJ8uvDy/3/oiHMfYpp39vFEnvQZQByTsBsmfoYbyYC5BUIiQbS9aYOiMDxW1jZscaF/aFYUuWmQ3quVqyZgm0ZM131pLVZrMlq9ENlqw2iyxZXWsNXeda6EM2WLCezPlOk6fwco30ACcB4uUMCAcAPu2Vzb0iGijy/j2SAADgCrp/uE8EkQDJWwEyFPtESLwQyWTJSrFBfcforYYbEW4bd2SACClUS9Yypy1ZAYGWrBprLVlBmy1ZZUlEiL9TM3Sd+/Vv2SBAjmE4PCTnu01+bjo/5vTDMt+CMiCO7WESsbYvq6p6arbnyRjTBJzn4blz546ydoZTjucDTv/eKJJep7YVXqFN6I5ZsE6NCZCYCEmbDTFqyRr5WckguHXsI7Hu6dFIJULSZUOssGSly4asnSnQklXsPUvWIq9ZslqtsWRBx1hD17hfv88GCxaif7nljcS8TDAYPIUx9id6eNvyknq5yLXkNf8LPQPCYYw9KGgeFuVwjtd4vfdHv/HspXuI+0QQ9QHJRwGy99TP495Tr8e9Q6/HPf1jWF9cFB+n98WFIxJj54hHcdfInxkdLG4b941oB/VkIiTekpUkG0KWrH5CJFdLlibQkhUUaMnKomdIZkvW44avcb/+Gmr6y6h1VaO/a7ZlURwemvVdJg9hjF3m4ofn8wDwOwD4aazC0fUG4mbG2C8A4AEAeNXh8ycB4gCKouwStMbfyWG/1XN2n5+iKNWSIABgh9P3CwqxFdAoA+KQALES3DViNV448hjuHPFPw//OtrHrot3TuQiJEyIZLVlmNqjnaskys0E9V0vWvMKwZDU5aclabEWVrC8bur7LOyfH79ugrIU9FBUVncYYe8kND+7Yw+zOmJe8QZblEVaMEQDG8hcx/lIKADcwxh7mlYEEjYkEiAP4fL5xAHBEwBq/XVxcPNLs+fHrW8C193e7e3/Ew/eaOH0PoRg4B4qirLBxzakPiJcFCF40fAteOKInYsnaNfIE7ptgyK+J28adHe2gnkSEZLtB3euWrOU2W7LSZUOEWbKqBVqyWqyzZJX3CpCO5Yau70BXbb/yuY8atW4RxmGMrXP4oX2UMXaroih6MBgcJmrtZFmeLCLzQwLEORhj3xVxDcuyfEEW5/Z1Aed1sT0zm3JMjaLuG7HO8U9RZJ4DWZYX2LXmJEA8LEBw9/AleOHp70f2hvTuC7no9GbD//72sX+MipB4IeKQJStdNsSKKlmrMlXJMtMzJFdLVom3LFn1LrFklXUcQTU8xtC17e+6bODejdCvUe3OetMnMRBuUxL10tD/JgoA+/iXaqfWxefzLRTwokQZEIcAgBpBL8P3mTkvLrQB4A2bz+uoqqoTJYEoijJP1P2DF8zge9dEjo8YCAkQjwoQvPh0BS8a/u6AKlm7RnzS8N/YMWY37hiLkUiVDdmaZoM6WbJiQiRXS5aZDeq5WrIWCrRkNVtsyWq/yfC1rek/HdhBPWLH+kTWPzoiAUVRZFEvDP3ibkVRZji9HCRA8ncTeoxBAPAPQS/E842eFGMsLOB8vi8JhlfbEnkfEdFckUgPCRAPChDcK43A3cMeS9Ez5A+G/87208/E7WPej3RRTydCHLNkmekZkqsla65AS5aS/5asGhssWaXt7Yau62DwFAx0vd7XQT1BgJxATa/P6QdIOLb5nFdkccuXSxIgeS9A+AvSAUHXtuEKloyxHwr4ndXYO7Mpx/a6qHuJoij0HHAYEiBeFCC7h/53mp4hPbh9mOGvg7hjzHejAiRehKTKhhjsGZK1JWtaYViyOm22ZKXLhjRXCbRkNVlnySpvf8po/w0s62oY0EFdixci+r9RXmPJBuVChjF2j6iXBb7pW7QnPRMkQPJfgCxYsOAMEf1tAOAVXtAh0/lwyyFj7D2bz+dxkZvP44kVeBByTwGAnU6MkeiDBIjHBAjuPrUE95x2ImXPkIgIGWb4QY3bxsq4c3RPgghxjSXrLOurZKXLhgizZDFvWrIabLZkJQiRfiKkrG2L4Wu6dOkXTvYMiRch8dkQv35l1j9CQiouLh4PAO/nQynIbCEBkv8ChMMYu0XQC/GyTOcCAN0CzmOf5BCMsf8VdU8BgG87NU4iCgkQrwmQi4fel9hBPZkIGfagqb+5c/RPcefomABJkQ2xwpK1OZMlK8UGdbJkxQmRXC1ZZjao52rJarTGklXR9jyWhYcbtl+VLX0+oXHhgGxIRIQcxUDnWVn/EAscWZbbRL0o8CpXkgshAVIwAmSRoBfiX2U6FwD4rc3nwbMrk8TMbNLxfVzgfcVwTynCtvWmMrxeESB4yZAm3NvbPT1ehMQLkZgI2TO8zPDf3TZyHu4Y/X5EhOxMI0Ly2pJlpmdIrpYsEGjJKnfWklVrgSVr4ZINhq/lwNKOuJ4hRGkCjwAAIABJREFUaUSIzrMgn8/qh0jwl7JLBd0s31MUpciNU04CpDAECG/6xxj7j4Br/QQAzEx1HqqqTuf/jM3nYLjQhx2I2GAfFz3cYufkeAsdEiBeEiAXn/ob3HsqRiJehCTLhlw03FR6EXeN+mJUgMQiaTYk0wb1XC1ZJnuGkCUrvSUrXTZEiCWrIXdLVmXrgygdHGz4Oi5rvy2hcWFfB/UkIqTrCG9YmNWPscDhHZwL3SZBAqQwBAiHl0MWdL1/1MkN8U5vzOYCTNBLWO98n+/keAsdEiAeESC4f+g8vOSUqPg4GcmyISdFyDHca2Yz+qgJuHPUiwkiZGchWbKKrK2SlS4b0iULtGSVec+SFREiPAuy6DhWt5UbvobLlhRhWfvxgR3U+4mQRCFyiekfI8EFyIMibpb8Jd+t000CpHAEiKDsA38h/rckSUk/uADAozYf+wmnNp/Hwxh7WtCLmGvtnYUCCRCvCJBLhnwiIkAiIiReiKSxZO0edp2pY+watQR3jULcySNZNsQiS1a6bIgVlqz1RixZSTaokyWrnxDJ1ZJlZoN6EhFSteiTpq7fiiVf7+sZ0l+EpLRk/d30j5HgLwmHBdwoX0v1MuYGSIAUjgDhAMDPBb0gBJMcu9Lu4/IMi+QCGGNfEzTPkZcxVVUNNbclrIcEiFcEyL4hT+MlQ6IC5KQQicuGJLNk7R52BPcNn2rqOLtGfiMiQiJCpJAsWWZ6huRaJctMz5Bcq2SVetWS9SgGg8MMX7elHTOxou1Y8g7qGSxZ/s4Fpn+QBYyqqqcKulHeJrkYEiCFJUAURdEFXfdf6X9sAPimncfkpYbdsh+CMRYSNM+9sd3pMRcqJEA8IEBwn3Qu7huMuG9INOKFSGZL1tdMHWv7pJG4c+TDfSIkXohEBMgx3DH6Ydwx9v/h9jEfi3ZTH7cJt40P49Zxq3DbuG7cOm4fbpnwcdwy4WbcMv7PuGXCYWOWLDMb1HO1ZJnYoE6WrPSWrKgQeRYbam/H+tovYF3dAayr24H19euxri4c/c/GHVhb/yGsafga1jT8DmsaXkttyWp+E6sXzzN13Va23TigcWG8CElnyQp0kg3LBJqmTRBxowSAz0kuhgRIYQkQLrwB4HkB1/6h+J4gADAWAN7N583n8aiqerqgDGvvfeYvTo+5UCEB4gUBckDahvu5AEklQtJYsnafdgIvOpWZOt6e0UW4a8ShmAA5gbtG3oc7Rl2OO8fU4R7JUDnUhL93UBqM2ybL2D3xQuyeeCtumfRGwViy0mVDrKiS1ZGpSpaVPUPiREhj9ZPYWP1lrK/RsalpvNlrInJdVDfMw5rGLVjTdCMGG9+MZUN6sKa5w9TfqWgrx8q2noTGhQlCJIUlq1eIBLoylr8kHNko+mE3zzsJkMISIII3o3fGHXOn3ceTZblKchFcEAm6x/TGIqfHXIiQAPGCANk/6Bu4fxD2iZCYEDFsyRp6NxcBpo65a0Qt7hy5GS8cYXlaFtfPGIZbJi7DzZN+gt2TjiXNhlhhyUqXDVlrZoN6AVqyFiUTIVVvYFPVf2NLtWb5NdHSchrWNrRjTeN6U/9eODwEKxfff7JnSK8ISZcNGShCXrF6PPmMoiiyoJcwxxqiGYEESOEJEEVRporojM6bH/Yek3+ht/lYpvqGiYAx1ijoZaw3/uSGDfiFBgkQTwgQ6YGoAEkiQoxasvactlNyIbhjwlTcPOkz2D3pcOFYssz0DMm1SpaZniEpq2Q9hy1Vu7BNPV1yGbhw8b4BjQvjhYhRSxY1JTSMz+crEXSj/IjkYkiAFJ4A4TDGbhZw7R/l1itZlksLtBTtIAD4u6D7TCQURVnh9KALDRIgXhAgB6TDeECKCZD+QiSJCEkQIr0CZOhhvOS0cySXgt1TJmL3xE/i5klHxViyzGxQL1hL1qvYUrkbw2WmbXciwKpFc3DhonejJXvjmxcmEyEZLFmBDteWe3UbiqLME3Sj/C/JxZAAKVgBEhR0/W+yuyIUALxSVubO+ztj7CJB89wbL/L9bU6Pu5AgAeJyAYL7pFER8XEykokQg5asPUN/Z9aKJRrcOKkIN0/+eX5bsoqtt2Sly4ZkY8laVHEzNpa7tkkfFoeHYvWi+wc0LkyaDclgySrnIqT9pOeaSI+iKDME3ShdszE2GSRAClOAcBhjD9t9/QPAH+zejA0Apkqdi6S4uHg8ABwRdK9xfePTfIQEiNsFyF5pVqIAiUW2lqw9Qy+UPABunrQWuye/ZZ8la7p1lqxVmSxZ53nIklX6Mi4ub5VcDlY3X5Oyg3q8CEmaDUm2L6Rjo9Nj8gqyLE8W9DLwgORiSIAUtADZJvLF2Kbf1/u8waLkYgDg+w7My2anx10okABxuwA5IPmSCpDsLVmv43ZppOQBcNPEObh58kPGeoZ4yZI1T6Aly9QG9QexuXSm5HKwtgkw2NIT1zMkiQgxacmqaKeHjkHmzp07StCLwDFeklNyKSRACleA8N8AALzptIiwaqO7W1EUpd6BeXmPMVbh9NgLARIgbhcgl0nFKQVIJkvWvgEi5GXcO6TG8MH7n8u2MeNw1/AleOHpl+KuEV/HXSPuwp0jH8CdI5+KxuhHcMeo+3Hn6B/h9tGfwp1jNuLWcQswh+oSuOes4dg96bvWW7LMbFDP1ZJlZoO6U5aswHfNNP5LWKNgcBi2VAWxufoibF74JWyq/iU2VT+ATdWPY1PwKWyofgwbgg9gY/CnWF9zDdbVbMG6uhI8eDBrOyBWN63C6ubDAzqoZ2/JcuNGTLcySEBfgkgoitIiuRQSIIUrQDiMsetcICKyDgDI+l1AIIMYY085MDevMsbA6cHnOyRA3C5AeBPCtALEqCVryKO4R5pm+MC9x7946BzcPfwKvGj4g3jh6SfwotMRLxwRi5HR2MUjZeNCxO1jXsTtY76HO8a24UHpFNPnIEmDsHvypyyrknV+IVmySoxYsm4wXaa5pWoSLqrciS2Vd2JL5ZFoqd6qDI0L4zuoR7qnv4L1NTdhfU0Hquqppq+LqhYZq5ufGCBCsrFklS9Zafb4hQwA/E3QzfK7kkshAVLYAiRWjKHHaSGRZfxV8ggAcMCJOeIb9H0+n8/p8eczJEDcLkD2SOMNCZB0lqxLBj+El0mTTDUO3DNcxz2n3Ye7hyHuHh4NLj5OxohEIRIvQnbFi5DRURESibGI28e+iNvGfBx3jTR8PifPa/Ok/dg9uccaS9ZZ1luy0mVDrLBkhWyxZH3RTIYKF5eW4qKKW3FRxbHMjQsXJoqQ/h3UG04KEcS62pewru4TGAxONHVNNDSMwWDzT6Id1NOIkAQhkkSElLUFzV6PhQwA/FTQS8ARvuldciEkQApbgHAYY3e4QExk87vqlrxld3vFobl6nZoU2gcJEJcLEA7ul94xLEL6W7IuGfwPvEwy3EwQ9wzlwuPvuOc0xD3DohEvQhKEyIgM2ZBkIiQmRLaNOYzbx34au8eNMTUXmyddlrRx4WayZJnfoK4aFh/YVlaCrWV3GOgZMlCEJM2GJBEhUSFyGOtrP4UtLaNNNSMMNt2UKEJMWrJKO1y/98VNAMAXBb4EuLIaFgmQnNY0LwSILMtdTouJLOKQm/dWuSkLEosTAPDBcDg8RMoTfD7fOMkFkADxhgD5u3EBEpcN2TfoGbxYOtvQMfacVoQXn/rLhA7qERESL0SSiZB4IWLQktWXDeFC5AXcPna1qfnonnR1chFixpI1TaAlK8ueIVlZsgxnQwz1WMAGdQy2Br6Ii0uPJ21cuDidCDFtyYpGfR0XIs9hXV3YVCf16qbbk4qQTJasirYj2VjAChnRNfoVRdkquQwSIDmtaV4IkGAweApj7D8uEBWGAwA+LXkMWZZHMMZecnju/sQY0ySPwnucxHrL3A8AP5dcAAkQbwiQ75sXINIR3C8FDP39vYPX4t5T307oGdIrQk4KkSTZkJwtWXFCZPu4H/JN7oYtYt2TbsPuSVERkq0l64JCsGQl2aDernzPSOYD2zU/tgWeTNq4ML5nSP9siBWWrIa6mBCpu4XbrAxdFy0tozHY9GhUhJixZLXeZ+TvE450Q+99aTrOH55uWgMSIDmtaV4IEA5j7AMOvxib+R29DwCezPbKsnyx0/MXy4Z8GwDmS+5ncElJicoYu5Qxdk/sHto7jmclF0ACxBsCZLdpAXJAyviw5hvCce+Qr6RsXDggG2KhJStZNmT72Kdw51hDlSdw/ZixuGXik4kixIwla6rAKllF1lbJSpcN6cq4Qf032J35az+2aVuxLfCe4caFdlmyuAipr3sMGxrmGbouapvnYk3TWwNFSLwQ6SdCKluvNfK3iT64HSHmjxb58Ocbfr8GAGPdsBYkQHJay7wRILxhnt0NA/PdzmgE3rHdiYpYae5FP5FleUlxcfFQyUUvsQCwg5dYZoy9lm4MbrBhkQDxggC5VFJNZj9+lPFv7pJOw0sG3zKwcWFCzxC015I1Opkl623cNr7J0LxsnqDhlknHUouQftkQKyxZ6z1tyXoR25WpGed1iXrAeOPCeEtWvBDJtEHdpCWrvu4QNtZUGrougo0bsKYpJkCMWLIWu7bUq5vhD2CHHv6vAcAVqqqaKlhgNSRAclrDvBEgDuyJyjpkWS6VPAxjrMGFlcf4/egGxliIN2kVNReqqp6qKIqfN8WMZWWeM3PeiqJUSw5DAsQLAoSXod0v/ceg+DiEe6W0PwI8KA3D/YN/a6xxoQlL1m6LLFnbxh7FbeMMdePGLRM+jlu4AOkNo5asKQItWecItGSl7BnSg12sIeN8tqtXG29cKNiSxTeo19bWGbougo0/SBQhKS1Zb/L9I0b+JpEIAOx0+MHPvzpfBwBcmGbdUyZbSIDktHZ5JUAYY+dye44LXobTxT1SHsAY+7oL5jJlAMCjXBDErE8dvFxzttkGXiwAAKaVlJSUMcZWAcCHYuP/PWPsaI7nul1yGBIgHhAgHDwgXWdQgOxM+3fC0hDcP+gH6XuGJBEhe+2wZKXZoL5tzLu4fWy1oUaFWyY8GREhJ4WIyQ3qdluy1rjAktUJX8s4l+3qpel7hiTtnp4iG2KRJWtgNuQtrK1VM46loWEqBhvfjIiQmmQipLdKVsu3Mv0tIjn8oSqqIaGBeJF/hVQURVcUpcgOQcI3wsqyvAAAljHGrmSM3SngZeZykdcfAFwtaL3ySoBwGGM/dMHvIN21tFTKE8sbALzg9HxmEVwwPAMAfwGABwDgdwBwO4/YHg3+vz3AGHsEAJ7nJchtvh6+5PRakgDxigC5RGIGxMffMzX6wwPSNQMaF8b3DBFtyUrXM2Tb2Ndxx6g5Gedm28RW3DIRo9FPhHS7wZI1W6Ala0EyEfIahovHp53DdhbCpSU9iT1DUjYudNaSxXuGBIMZN1JibeOeqACJRTIRsrDJUKEGIjmMsW+44MGe7OH6TuyBzr9EXsMFAwDs5/0PGGMrGWMb+X+Pi92xUp8fA4DPAcBXGWM3c5ERa7r4lkPjIAHiEURkxHK4jv7hRJbQLjxa/tht4XhGjASIRwQIB/dLd2UQIevS/vv7pDY8IPWk7BkSnw0RYsky0jNkzMPYPSVjzXLcOuGegSIkRTbECkvWBpstWSsttGR1+falnbsuZQZ2KK8ZbFxoMBtityWr5g8YDg/NWJq3pvHfyUVIM2J18+8zXVdEemLWAKcfpHkbJEC8Rcwagy6MbVKeEfuw4PS8ejlel0w0IbYDEiBeEiAHpCVpxMfT2C2lrG6El0hnRvaHZGpc6E5L1lcyzk33uBbcOgETREi2lqyNVluyZgm0ZPXboK77XsBw2fC0JY072e+NNS7MJRtigyWrviajjQNrGzZjbSNiDY9eIRITIDXNzZn+fSIzAPArFzxM8zJIgHgLRVFWOH3NJInXuH1QysNKfLyfhQvm17Ph8/nOcnINSYB4SIBw8ID066QC5FIpbaMu3C99J2PjwgFCJNMG9VwtWYY3qPfg9jH1Gedm64R7IyJka68ISZUNcciStdZmS1aybEh4wUfSzlknbDHYuNCAJSsg0JJVwwXICaytrTCQBXkxIkIiQqQ3E9J0R6briTAGYww8sAHXk0ECxJPlqZ922TX0USlPie0HedLpOfZqKIriaAVIEiBeEyD7JD/ul0702/vxMq9slfLfOSBVJVqvUoWLLVnbxzyOB6X0lpst4xZHBUgSEbLFSUvWTIGWrIQN6u/higVnpJyvcPF47ITXUvcMKcmcDbHCkrUoF0tWzV8wGEy/76m2/mNY2xAVIDyCjUexttkLjaQ8g1v3gng9SIB4D8bYXqevm7g4qmnamVIe4/P5fIyxt10w154LAEhrz7YbEiAeEyAc3C/9Vz8B8vmssiYZsyEWWbLSZUPMWLK2j96WsVzxtvFP9omQeEvWRIGWrOnWWbJW5WLJKr4t7XzpvssTy/UmbVzoUktWwgb1zWnHGWw6D+u4AOkVIQ2XZPiJESZRVXUKALzq9AM134IEiPdQVXUMALzp9LUTi4zVD/MB/iUfAI65YL49FQDgaBVIEiBeFCC8ieB+6aE4+1XK5kK4Xwpk0UXdrZas53jZ3bRzs23c5bhtfJ8AycWStckqS9YMgZasOCESXrAm5TytkUdgl++VDI0LM1iyzGxQt9iSlZANCf4744b02vo/RUVI/W/x4MG8qQbjJqgyjS0vCFQFy4Mwxj7r9Mslb9gHAAWT6WWMrXdhk0K3x4NOrhkJEA8KEA5eKs2ONSd8kn/5T/nPHZC+m5UAEWLJMrNBPSZCdo26IO287BwzC7eN74mIkP5CRJgl62xnLVnRbEgPrpyTslM06gu2Zmhc6HJL1oAN6hvTXhd1dVdiXd3zvD+IwZ8YkQWxjsBOP1TzJkiAeBNFUWY4/UUeAH4mFRi8vDbtRzN1jRzh+5acWi8SIB4VIHEiZEvK/3+vNAL3S29nL0Bcacm6L+O8bBt3z0kBklKE2GTJOt9pS1ZMiCyb95e0c6TPvy9p40JTlqwSay1Z6bIhzRk2qDcE70873pqaUqyro54fNsOr7bi4FKnnggSIdwGAbzp87dRKBQhjbJ3T4s9L4fP55jq1ViRAPCxAMoH7pLU5iw9bLVnDsrNkbRs5L+24t41RcfvYT+HWcb/GbeMPRUXIeIGWrLOcsWQtP+9NXDH3Llw+9xpcPi9l1TDs8s3G8IKegT1DkokQt1qykmxQb6j22fJDIkx74Hlq3+kHaz4ECRDvEnuhcKQ6HAD8QSpgFEWp530unP79eiEURdGdWicSIPksQHKyX5m0ZO0zYsmyqmfIyAOm5mHbmNm4bXwYt42/CrdO+BVuGf+yqyxZ67KyZL2AK+f8ElecexWumLMM1xQXpbPiJcxHeMHWtI0LDVuyFIGWLAMb1BuDH8v6x0JYCq+8wxh73OmHq9eDBIi3YYzdXGgvlW5BUZR5APA3p3/Dbg/R95h4SIDkswDZLz1rrQCx2pJlZoN6nAjZOeq3Oc/N+hnDcPu4+bhtUhi7JxzALROvxy0Tb8fNE5/K3ZI1zSpL1iFcc84DuHr2zbj6nKtw1TnduHJ2FYZnj8lp7MuKb0rZuNCMJavTdZasB3K9LgjrCAQCoxljtzr9gPVykADJix45QjdG874YTvr63URZWdlwALjW6d+xmwMAfuDU+pAAyVMBgnulWbaIj5wsWSY2qKe3ZB3jlcBsm7sLJozCTRPn4JZJldg9eSlumrwVN0/+CG6afB1uOvNm3HTmb3DTGQ/gpikP4MYpT+HGqTxexvOnHMLzpx49KUQ2TDuG5087hBumvYbrz3oqEhvOfhDXT38A10+/C9dNvwXXzfgCrpt+ENfN2IZrZizF9bMrce2sORguHmnb+JYVP5uycaEpSxYTaMmqMGLJ6sHG8sl2zRuRFYMA4ABtDM365YCqYHkcxtj/Cn6hTFuWvBCRZbmNMfaM0y/7Lo3HnFoXEiD5KkD2S4tsFSBOW7J2n15i+yTmIdg+dxQun9eTonGh/ZasdpstWU1VbU7PMTEQAKhhjP3TBQ9bTwUJEO+jKEq5wOvlhWAwmLIpcSEDAGMB4IsA8L7Tv2s3BQAc55kih9bknXzfaF+YAuSAdJH9AiSJJStdNmSvhT1Ddo7aYPsk5iG4Yq4/deNCs5YsEGjJKjdqybrM6TkmkjN37txRjLHrqVa/qZcDyoDkAYyxOwS9XND9z8DeEMbYT5x+8XdTyLK8QHIAEiD5KkD2S1cLEyCOWLJOP2j7JOYhuHLe0pSNC7O1ZHXZbMlqNWPJqvqe03NMpEdRlGrG2N1OP3S9ECRA8gNZlusEXC9v8a/8To/VK5SUlKh8/0MB20NPAMBP+bXp1BqQAMlfAXK9UAFiyJKVRc+QlJas079o+yTmIbjs3HUpGhcmt2Sly4Z0yQItWWVGLVm/cXqOCWMwxhoB4D4XPIhdE7EH8v08U6QoylZVVc8ReT0BwNWCxnqNVGDYfa0DwKedHqMXURSliM8dALxSAPeX44yxOxlj21VVneL03JMAyVcBckD6nngB0i8bsm/wEdw36De4b9A1uH/wZbhv8AG8ZMiX8ZIhv8O9p7yVoyXrRtsnMQ/BlXO2p+ygntGStSBehLyFuvxQJDrll833DLHNkvWw03NMmEOWZQUAPg8Arzr9gBb8MvAvAPg5Y+xTjLGV3BridPUiEiC2b4S263p6DwCm2Xj6eQ/fOwMAqwHgt/lkE+X3VQD4vqIoaxljkyQXQQIkfwXIjY4JkAPSYdwvfRD3SONTnp8kDcK9p5TiJUOuw72nvmzakrV7+Ndsn8Q8BFeeu7OveWEyEZLKkjX/JdTnX4ddCxZj17wZA/5upzoFO+F87IIH7LFkGdyg3lz5rDMzS+RKUVHRaQCwFABuYIw96/SD26LgLzL/BICf8a+ssixfAAABvh/GjVcMCRBbGcQY+7NN19nX7T31wkKW5TmMsQ/buF52W/H4h43LSkpKypz+qJEOxtiVjLGrBISrhFchCJCvOCQ+nsR9kqmKA9gtnYp7T12BF5/ymGFL1kXDr7Zv9vIXXDVn44AO6mktWfN+jsvmN2MweIqhv8+F5VLYjJ1wxHJLVrqeIX0i5An7Z5EQ2ENhL2PsfwDgCTd/lYx9ZfwDANwIAB8HgA2MMa242L5y2gRB2I/P55vN7ZC8qSQAvOyy+84xAPgLAHwbAPbwe07Q4LOaIGwD90ufFW+9kl7EA9LMrM/5oHQK7j11I+495T8GLFm7rJ2xwgBXnLMsKkCSiJB4IbJs3u9w2bzqrI/T5aseIEJysmQZ7hnyoLUzRrgFvsGWb5jkfQ74Sz5j7LuMsXtjGYY3LH64H2WMHYqVDv4rr2LEbQy8qRkAfAj+f3v3EhtVFcdx/C9QHhpFgoaoJEI7M/TBdG4tBdQovhYQLWDLtDOdQeJCjETFtnRuISYYHysXBqPGmKhxi4+oGzWgkBhDjI9gYowb0Y0oGgETF4jCz9x2phn7mL7m3tvH95OcFSEz/3MmML85/3NuIrHT262Jx+M3cPAXmDUu8c6MNDQ0pPLnRj7wHvwY0NW+pxzHOeKdn/J+4PBaV2tra+eHPSHAEHKtO4Tdj9ZyLIU6bZG6Kg6ou+LiiC1ZuxdO+MvxbKZUdJ06ovkAMjiIeOFj1Wm1VafK8lotiZ3+3ZI1YkvW4XK8d0xLc5qampZ6v1h6N9wUhuM4GxzHucsbiUTi9uI/84b3H3n+V85r4/H4Eu9LRtiFAJg+vCDgBZN4PH6Ld54rvxuxL9/+81z++nHvB5ODjuN8lEgkDuWvAj5YNLyd3pccx3k6//d31NfXN3v/RjU2Ni4Ou0ZgzORac8Dh45tyL486525U17yfh9kN+Ve7F3Pd4ETmNBm5ui+ADB9CDisTWV629dtvc9RSf7w8t2SN8YD6phtfLtf7BwAAwDiox6IBt1/t8WOB1GtL1VVx5H8hpHP+Z3wYJjGn6aoTAyHEG6nYBXXEXC8wlHtetS2+a0IPLpxoS9amdV3lrgEAAABjPQzs2qkAA8h6vxZG+22+uue9PnBLVuf8x/kQTGI+O6peUyZSCCDnlI6mfHutFic6rgcXltoNGUtL1qa1oT1UCQAAYNZTzg4GFkD2mu/XnKlr3r6+cyGPzVsz6xd3MvOYjjT3B5CqP5Wq9PULe38bVvz80Ceoj9aSdcMEWrLWnlNy/SI/6wEAAEAJytkDgQWQbrssiMVQZ0XWj1ah2URJm6tM5ddKRRoCeb3W1b8PBJDBuyFjbskawwH1u9ceDaIeAAAAjEC9tkSunQtoB2QZCzF9aMf1CwN7rdbVZ4ueoD40hEz0gPqQENL0aFA1AQAAYATK2TuBBJAe28AiYMjnLx27SttWqy+ADA4hpVqy7h1vS9aaf9S8jhAMAAAQNvXYnQG1YT0Udq2YepSsvUNJL4AURiGIjNaSNc5nhtzT9F7YtQIAACBPrh3zPYDk7FUmHINpW91jStZp+BBSxpase5puZPYBAACmCOVsUwA7IH941+WGXSumFrXVfNwfQAqjRAiZ6AH15jWfhF0nAAAABpFr7wVwDmQzE4+Bz1wyep3aav9VW63UNlwIKUNL1ubGC9rauJZZBwAAmGLUbSvl2l8+t2G9FXadmDrUXu2qvUb9ASQ/ikNIqd2QlrE+M6ThxbDrBAAAwAiUs/t9DiAXtMccFgDaGFmgtlU/9QWQEUPIpFuyftSWxJXMNgAAwBSmnL3hcwh5P+waET6lVj2qVLXU7o1CCCkOIqO1ZI1yQH1r4ry2ODeFXScAAABGof22UK4d9TWE7LWbWYjZS9n6y5SK/aLUKg0JIeVqydrqcO0zAADAdCHXFitnx30MId+p0xaFXSfCoXTsKaW98FEY1UODSHEIKbUbMnxL1jOsLQAAwDSjXlsi1z71sRXr+bBrRPCUiTUpHf1H6Zj6R6kQMoGWrJb4AZldwtoCAABqIwC4AAABmElEQVRMQ9pvlypn7/oUQi56zx8Ju0YERzuuX6iO6LfqiObDx+AQMp6WrCEH1C+qNf4E6wkAADDNeb8mK2d75Np5H3ZBflOPRcOuEcFQJvKCOiLqCyCFMVIIGU9LVmvdWW2LJ1lHAACAGUS91iTXvvIhhPygvbYs7PrgL2UqH1SmSspE+sewIWQ8LVkDuyGfq72uivUDAACYgZS0ueqxXcrZr2UOIV+qxy4Puz74Q5mq25St/FtZL4AUh5DiIDJaS9bg3ZCaM0rW7FYyOZd1AwAAmOG8G6yUs4fl2okyBpHD3Iw18+i+qjplK88oW6n+USqEjKElq636tNpqntTW6qVh1wYAAIAwzoe4dqtce0U5OzmpsyCuPat9dg2LOHPokcgCZVcc0vaV0vZCACkOIeNpyYodU3v1w8pErgi7LgAAAEwR2mvV6rWdcu2AXPtQrn2fb9f6Kx82zsq1U3LtC+XsoFzb5z2UUDutIuz3Dv8oE1mu7SseUHbF28pWnh4IIaV2Q9LRk0pH31Q6tkvtEc54AAAAmL/+A3aEDoBPv5FZAAAAAElFTkSuQmCC;imageBackground=none;imageBorder=none;rotation=-90;" parent="77TPbMftFl7pItSL4d7y-25" vertex="1">
          <mxGeometry x="-18.115397170837866" y="43.96176470588237" width="55.611722643355485" height="13.694095701392635" as="geometry" />
        </mxCell>
        <mxCell id="MSJdZvLmTwEto3zQjgk4-12" value="" style="strokeColor=#dddddd;shadow=1;strokeWidth=1;rounded=1;absoluteArcSize=1;arcSize=2;" parent="77TPbMftFl7pItSL4d7y-25" vertex="1">
          <mxGeometry x="180.0014285714285" y="20" width="145.71428571428575" height="60" as="geometry" />
        </mxCell>
        <mxCell id="MSJdZvLmTwEto3zQjgk4-11" value="&lt;b&gt;Data Base&lt;/b&gt;&lt;div&gt;&lt;font color=&quot;#b3b3b3&quot;&gt;PostgreSQL&lt;/font&gt;&lt;/div&gt;" style="image;aspect=fixed;html=1;points=[];align=left;fontSize=12;image=img/lib/azure2/databases/Azure_Database_PostgreSQL_Server.svg;spacingLeft=40;spacingTop=-35;" parent="77TPbMftFl7pItSL4d7y-25" vertex="1">
          <mxGeometry x="197.14428571428562" y="25" width="24.489795918367342" height="32.65306122448979" as="geometry" />
        </mxCell>
        <mxCell id="MSJdZvLmTwEto3zQjgk4-1" value="" style="fillColor=#F6F6F6;strokeColor=none;shadow=1;gradientColor=none;fontSize=14;align=left;spacing=10;fontColor=#717171;9E9E9E;verticalAlign=top;spacingTop=-4;fontStyle=0;spacingLeft=40;html=1;container=0;" parent="1" vertex="1">
          <mxGeometry x="280" y="-720" width="710" height="490" as="geometry" />
        </mxCell>
        <mxCell id="Zh6aKzVjo9YAihgdkJbR-4" value="" style="group" parent="1" vertex="1" connectable="0">
          <mxGeometry x="305" y="-420" width="170" height="60" as="geometry" />
        </mxCell>
        <mxCell id="Zh6aKzVjo9YAihgdkJbR-2" value="" style="strokeColor=#dddddd;shadow=1;strokeWidth=1;rounded=1;absoluteArcSize=1;arcSize=2;" parent="Zh6aKzVjo9YAihgdkJbR-4" vertex="1">
          <mxGeometry width="170" height="60" as="geometry" />
        </mxCell>
        <mxCell id="Zh6aKzVjo9YAihgdkJbR-3" value="&lt;div&gt;&lt;b&gt;Docker&lt;/b&gt;&lt;/div&gt;&lt;font color=&quot;#b3b3b3&quot;&gt;Conteiner Register&lt;/font&gt;" style="editableCssRules=.*;html=1;shape=image;verticalLabelPosition=bottom;labelBackgroundColor=#ffffff;verticalAlign=top;aspect=fixed;imageAspect=0;image=data:image/svg+xml,PHN2ZyB4bWxucz0iaHR0cDovL3d3dy53My5vcmcvMjAwMC9zdmciIHhtbG5zOnY9Imh0dHBzOi8vdmVjdGEuaW8vbmFubyIgd2lkdGg9IjM3Ny4xNTkzMDIxNjAyNjMwNSIgaGVpZ2h0PSIzMzYuMTYyNDk5MDAzMzEwOCIgdmlld0JveD0iLTAuMDU4MDAwMDA1NzgxNjUwNTQgMC4xMTI5OTk5OTgwMzMwNDY3MiA5OS43OTAwMDA5MTU1MjczNCA4OC45NDMwMDA3OTM0NTcwMyI+JiN4YTs8c3R5bGUgdHlwZT0idGV4dC9jc3MiPiYjeGE7CS5zdDB7ZmlsbDojNjY5ZGY2O30mI3hhOwkuc3Qxe2ZpbGw6I2FlY2JmYTt9JiN4YTsJLnN0MntmaWxsOiM0Mjg1ZjQ7fSYjeGE7PC9zdHlsZT4mI3hhOwk8cGF0aCBjbGFzcz0ic3QwIiBkPSJNNTMuMjQzIDYyLjA5VjQ3LjA5NGwxMy4yMDEgOC40MTZ2MTUuMDM4em0tMzMuMDIxIDBWNDcuMDk0bDEzLjIwMSA4LjQxNnYxNS4wMzh6bTE2LjUxMS0zMi4yODVWMTQuODFsMTMuMjAxIDguNDE2djE1LjAzOHptNjIuOTk5IDMzLjk2VjI1LjQwM2wtOS41NjItMS44ODR2NDIuMTMxem0tOTkuNzg4IDBWMjUuNDAzbDkuNTYyLTEuODg0djQyLjEzMXoiLz4mI3hhOwk8cGF0aCBjbGFzcz0ic3QxIiBkPSJNNTMuMTg1IDQ3LjA5NGwxMy4yNTgtOC4yODcgMTMuMDE2IDguMjM0LTEzLjAxNiA4LjQ2OXptLTMzLjAyMSAwbDEzLjI1OC04LjI4NyAxMy4wMTYgOC4yMzQtMTMuMDE2IDguNDY5ek0zNi42NzUgMTQuODFsMTMuMjU4LTguMjg3IDEzLjAxNiA4LjIzNC0xMy4wMTYgOC40Njl6bTYzLjA1NiA0OC45NTZ2MTIuMjE3TDc3LjAxIDg5LjA1NVY3Ny43NTJ6bTAtMzguMzYzVjEzLjE4Nkw3Ny4wMS4xMTN2MTEuMzAzek0tLjA1OCA2My43NjZ2MTIuMjE3bDIyLjcyMSAxMy4wNzNWNzcuNzUyem0wLTM4LjM2M1YxMy4xODZMMjIuNjYzLjExM3YxMS4zMDN6Ii8+JiN4YTsJPHBhdGggY2xhc3M9InN0MiIgZD0iTTY2LjQ0NCA3MC41NDdWNTUuNTFsMTMuMDE2LTguNDY5djE1LjR6bS0zMy4wMjEgMFY1NS41MWwxMy4wMTYtOC40Njl2MTUuNHptMTYuNTExLTMyLjI4NVYyMy4yMjVsMTMuMDE2LTguNDY5djE1LjR6bTQ5Ljc5OCAyNS41MDNsLTkuNTYyIDUuODh2LTMuOTk2em0wLTM4LjM2M2wtOS41NjItNS44OHYzLjk5NnpNLS4wNTggNjMuNzY2bDkuNTYyIDUuODh2LTMuOTk2em0wLTM4LjM2M2w5LjU2Mi01Ljg4djMuOTk2eiIvPiYjeGE7PC9zdmc+;align=left;spacingLeft=45;spacingTop=-35;spacingBottom=0;" parent="Zh6aKzVjo9YAihgdkJbR-4" vertex="1">
          <mxGeometry x="15" y="12" width="40" height="36" as="geometry" />
        </mxCell>
        <mxCell id="Zh6aKzVjo9YAihgdkJbR-6" value="" style="group" parent="1" vertex="1" connectable="0">
          <mxGeometry x="305" y="-520" width="170" height="60" as="geometry" />
        </mxCell>
        <mxCell id="Zh6aKzVjo9YAihgdkJbR-7" value="" style="strokeColor=#dddddd;shadow=1;strokeWidth=1;rounded=1;absoluteArcSize=1;arcSize=2;" parent="Zh6aKzVjo9YAihgdkJbR-6" vertex="1">
          <mxGeometry width="170" height="60" as="geometry" />
        </mxCell>
        <mxCell id="Zh6aKzVjo9YAihgdkJbR-8" value="Code Repository&lt;br&gt;&lt;font color=&quot;#b3b3b3&quot;&gt;GitHub&lt;/font&gt;" style="dashed=0;outlineConnect=0;html=1;align=left;labelPosition=center;verticalLabelPosition=bottom;verticalAlign=middle;shape=mxgraph.weblogos.github;spacingLeft=40;spacingBottom=70;" parent="Zh6aKzVjo9YAihgdkJbR-6" vertex="1">
          <mxGeometry x="17" y="12.5" width="35" height="35" as="geometry" />
        </mxCell>
        <mxCell id="Zh6aKzVjo9YAihgdkJbR-15" style="edgeStyle=orthogonalEdgeStyle;rounded=0;orthogonalLoop=1;jettySize=auto;html=1;entryX=0;entryY=0.5;entryDx=0;entryDy=0;strokeWidth=2;strokeColor=#000000;" parent="1" source="Zh6aKzVjo9YAihgdkJbR-12" target="Zh6aKzVjo9YAihgdkJbR-7" edge="1">
          <mxGeometry relative="1" as="geometry" />
        </mxCell>
        <mxCell id="Zh6aKzVjo9YAihgdkJbR-17" style="edgeStyle=orthogonalEdgeStyle;rounded=0;orthogonalLoop=1;jettySize=auto;html=1;entryX=0.5;entryY=0;entryDx=0;entryDy=0;strokeWidth=2;strokeColor=#007FFF;shadow=1;" parent="1" source="Zh6aKzVjo9YAihgdkJbR-7" target="Zh6aKzVjo9YAihgdkJbR-2" edge="1">
          <mxGeometry relative="1" as="geometry" />
        </mxCell>
        <mxCell id="77TPbMftFl7pItSL4d7y-1" value="&lt;b&gt;&lt;font color=&quot;#007fff&quot;&gt;BackEnd&lt;/font&gt;&lt;/b&gt;" style="edgeLabel;html=1;align=center;verticalAlign=middle;resizable=0;points=[];labelBorderColor=none;textShadow=1;spacing=2;" parent="Zh6aKzVjo9YAihgdkJbR-17" vertex="1" connectable="0">
          <mxGeometry x="-0.3" relative="1" as="geometry">
            <mxPoint as="offset" />
          </mxGeometry>
        </mxCell>
        <mxCell id="Zh6aKzVjo9YAihgdkJbR-21" value="" style="group" parent="1" vertex="1" connectable="0">
          <mxGeometry x="305" y="-320" width="170" height="60" as="geometry" />
        </mxCell>
        <mxCell id="Zh6aKzVjo9YAihgdkJbR-20" value="" style="strokeColor=#dddddd;shadow=1;strokeWidth=1;rounded=1;absoluteArcSize=1;arcSize=2;" parent="Zh6aKzVjo9YAihgdkJbR-21" vertex="1">
          <mxGeometry width="170" height="60" as="geometry" />
        </mxCell>
        <mxCell id="Zh6aKzVjo9YAihgdkJbR-19" value="&lt;div style=&quot;text-align: left;&quot;&gt;&lt;b&gt;Build Image&lt;/b&gt;&lt;/div&gt;&lt;div style=&quot;text-align: left;&quot;&gt;&lt;span style=&quot;font-family: &amp;quot;Google Sans&amp;quot;, &amp;quot;Noto Sans&amp;quot;, &amp;quot;Noto Sans JP&amp;quot;, &amp;quot;Noto Sans KR&amp;quot;, &amp;quot;Noto Naskh Arabic&amp;quot;, &amp;quot;Noto Sans Thai&amp;quot;, &amp;quot;Noto Sans Hebrew&amp;quot;, &amp;quot;Noto Sans Bengali&amp;quot;, sans-serif; text-wrap: wrap;&quot;&gt;&lt;font color=&quot;#b3b3b3&quot; style=&quot;font-size: 12px;&quot;&gt;Cloud Build&lt;/font&gt;&lt;/span&gt;&lt;br&gt;&lt;/div&gt;" style="editableCssRules=.*;html=1;shape=image;verticalLabelPosition=bottom;labelBackgroundColor=#ffffff;verticalAlign=top;aspect=fixed;imageAspect=0;image=data:image/svg+xml,PHN2ZyB4bWxucz0iaHR0cDovL3d3dy53My5vcmcvMjAwMC9zdmciIHhtbG5zOnY9Imh0dHBzOi8vdmVjdGEuaW8vbmFubyIgd2lkdGg9IjE3LjMyOTk5OTkyMzcwNjA1NSIgaGVpZ2h0PSIxOS42MTAwMDA2MTAzNTE1NjIiIHZpZXdCb3g9IjAgMCAxNy4zMjk5OTk5MjM3MDYwNTUgMTkuNjEwMDAwNjEwMzUxNTYyIj4mI3hhOwk8c3R5bGUgdHlwZT0idGV4dC9jc3MiPiYjeGE7CS5zdDB7ZmlsbDojNDI4NWY0O30mI3hhOwkuc3Qxe2ZpbGw6IzY2OWRmNjt9JiN4YTsJLnN0MntmaWxsOiNhZWNiZmE7fSYjeGE7CTwvc3R5bGU+JiN4YTsJPHBhdGggY2xhc3M9InN0MCIgZD0iTTEyLjE4IDcuOThMMTEgNy4yOWwtMy41MiA2LjEgMS4xOC42OCAzLjUyLTIuMDN6IiBmaWxsPSIjNDI4NWY0Ii8+JiN4YTsJPHBhdGggY2xhc3M9InN0MSIgZD0iTTYuMzIgMTIuNzJsMy41My02LjA5LTEuMTktLjY5LTMuNTIgMi4wNHY0LjA2eiIgZmlsbD0iIzY2OWRmNiIvPiYjeGE7CTxwYXRoIGNsYXNzPSJzdDIiIGQ9Ik0zLjc1IDcuOThMMCA1LjgxdjkuMmw3Ljk3IDQuNnYtNC4zM2wtNC4yMi0yLjQ0em05LjEzLTEuMmwzLjc2LTIuMTdMOC42NiAwIC42OCA0LjYxbDMuNzYgMi4xNyA0LjIyLTIuNDR6TTkuMzUgMTkuNjFsNy45OC00LjZ2LTkuMmwtMy43NiAyLjE3djQuODZsLTQuMjIgMi40NHoiIGZpbGw9IiNhZWNiZmEiLz4mI3hhOzwvc3ZnPg==;spacingLeft=110;spacingTop=-40;" parent="Zh6aKzVjo9YAihgdkJbR-21" vertex="1">
          <mxGeometry x="15.5" y="10" width="34" height="40" as="geometry" />
        </mxCell>
        <mxCell id="Zh6aKzVjo9YAihgdkJbR-22" style="edgeStyle=orthogonalEdgeStyle;rounded=0;orthogonalLoop=1;jettySize=auto;html=1;entryX=0.5;entryY=0;entryDx=0;entryDy=0;strokeWidth=2;strokeColor=#007FFF;shadow=1;" parent="1" source="Zh6aKzVjo9YAihgdkJbR-2" target="Zh6aKzVjo9YAihgdkJbR-20" edge="1">
          <mxGeometry relative="1" as="geometry">
            <Array as="points">
              <mxPoint x="390" y="-340" />
              <mxPoint x="390" y="-340" />
            </Array>
          </mxGeometry>
        </mxCell>
        <mxCell id="Zh6aKzVjo9YAihgdkJbR-29" value="" style="group" parent="1" vertex="1" connectable="0">
          <mxGeometry x="700" y="-453" width="70" height="80" as="geometry" />
        </mxCell>
        <mxCell id="Zh6aKzVjo9YAihgdkJbR-28" value="" style="strokeColor=#dddddd;shadow=1;strokeWidth=1;rounded=1;absoluteArcSize=1;arcSize=2;" parent="Zh6aKzVjo9YAihgdkJbR-29" vertex="1">
          <mxGeometry width="70" height="80" as="geometry" />
        </mxCell>
        <mxCell id="Zh6aKzVjo9YAihgdkJbR-27" value="&lt;font color=&quot;#000000&quot;&gt;Secret&lt;br&gt;Manager&lt;/font&gt;" style="sketch=0;html=1;verticalAlign=top;labelPosition=center;verticalLabelPosition=bottom;align=center;spacingTop=-6;fontSize=11;fontStyle=1;fontColor=#999999;shape=image;aspect=fixed;imageAspect=0;image=data:image/svg+xml,PHN2ZyB4bWxucz0iaHR0cDovL3d3dy53My5vcmcvMjAwMC9zdmciIGlkPSJzdmc1MzkzNyIgdmVyc2lvbj0iMS4xIiB2aWV3Qm94PSIwIDAgMTc1LjE2MDYzIDEwNC4yNzczNSIgaGVpZ2h0PSIxMDQuMjc3MzVtbSIgd2lkdGg9IjE3NS4xNjA2M21tIj4mI3hhOyAgPHBhdGggZD0ibSAxMjguNTY5MSwzNC4xMTUyMzYgdiAxMi45Nzg1MTYgbCAtMTIuMzM3ODksLTQuMzgwODYgLTIuNTA5NzcsNy4wNjgzNiAxMi41NDEwMiw0LjQ1MzEyNSAtOC41NjA1NSwxMS40MzE2NCA2LjAwMTk2LDQuNDk2MDk0IDguNTk5NjEsLTExLjQ4MDQ2OSA4LjQ5NDE0LDExLjQ2NDg0NCA2LjAyNzM0LC00LjQ2NDg0NCAtOC40NzI2NiwtMTEuNDMzNTkzIDEyLjY0MDYzLC00LjQ2Njc5NyAtMi41LC03LjA3MDMxMyAtMTIuNDIzODMsNC4zOTA2MjUgViAzNC4xMTUyMzYgWiBtIC00NC43NzY4NzIsMCB2IDEyLjk3ODUxNiBsIC0xMi4zMzc4OTEsLTQuMzgwODYgLTIuNTA5NzY1LDcuMDY4MzYgMTIuNTQxMDE1LDQuNDUzMTI1IC04LjU2MDU0NywxMS40MzE2NCA2LjAwMTk1Myw0LjQ5NjA5NCA4LjU5OTYxLC0xMS40ODA0NjkgOC40OTQxNCwxMS40NjQ4NDQgNi4wMjczNDcsLTQuNDY0ODQ0IC04LjQ3MjY1OSwtMTEuNDMzNTkzIDEyLjY0MDYyOSwtNC40NjY3OTcgLTIuNSwtNy4wNzAzMTMgLTEyLjQyMzgzMiw0LjM5MDYyNSBWIDM0LjExNTIzNiBaIG0gLTQ0Ljc3Njg1LDAgdiAxMi45Nzg1MTYgbCAtMTIuMzM3ODkxLC00LjM4MDg2IC0yLjUwOTc2NSw3LjA2ODM2IDEyLjU0MTAxNSw0LjQ1MzEyNSAtOC41NjA1NDcsMTEuNDMxNjQgNi4wMDE5NTMsNC40OTYwOTQgOC41OTk2MSwtMTEuNDgwNDY5IDguNDk0MTQsMTEuNDY0ODQ0IDYuMDI3MzQ0LC00LjQ2NDg0NCAtOC40NzI2NTYsLTExLjQzMzU5MyAxMi42NDA2MjUsLTQuNDY2Nzk3IC0yLjUsLTcuMDcwMzEzIC0xMi40MjM4MjgsNC4zOTA2MjUgViAzNC4xMTUyMzYgWiBNIDE3NS4xNjA2NCwxMGUtNyBWIDEwNC4yNzczNCBoIC0zNy4yNzY4MiBjIC0xLjIwODU3LDAgLTIuMDAyNDgsLTAuNjIzNTQgLTIuMDAyNDgsLTEuODY2MzQgdiAtOS45MjcyMzggYyAwLC0xLjE0ODI1IDAuNzE1OTYsLTEuNzA2NDIgMi4wMDI0OCwtMS43MDY0MiBoIDIzLjc3NjgyIFYgMTMuNSBoIC0yMy45NDQ5OCBjIC0xLjQwODU1LDAgLTEuOTUxNTEsLTAuNzUyMzE3IC0xLjk1MTUxLC0yLjA3NDQ4MiBWIDEuODQyNzI2IGMgMCwtMS4yNjU5NzEgMC42OTgwOCwtMS44NDI3MjUgMS45NTE1MSwtMS44NDI3MjUgeiBNIDAsMCB2IDEwNC4yNzczNSBoIDM3LjI3NjgxNCBjIDEuMjA4NTcxLDAgMi4wMDI0ODMsLTAuNjIzNTQgMi4wMDI0ODMsLTEuODY2MzQgdiAtOS45MjcyMzggYyAwLC0xLjE0ODI1IC0wLjcxNTk1NywtMS43MDY0MiAtMi4wMDI0ODMsLTEuNzA2NDIgSCAxMy41IFYgMTMuNDk5OTk5IGggMjMuOTQ0OTczIGMgMS40MDg1NTIsMCAxLjk1MTUxMSwtMC43NTIzMTcgMS45NTE1MTEsLTIuMDc0NDgyIFYgMS44NDI3MjUgQyAzOS4zOTY0ODQsMC41NzY3NTQgMzguNjk4NDEsMCAzNy40NDQ5NzMsMCBaIiBzdHlsZT0iY29sb3I6IzAwMDAwMDtvcGFjaXR5OjE7ZmlsbDojNDI4NWY0O2ZpbGwtb3BhY2l0eToxOy1pbmtzY2FwZS1zdHJva2U6bm9uZSIvPiYjeGE7PC9zdmc+;" parent="Zh6aKzVjo9YAihgdkJbR-29" vertex="1">
          <mxGeometry x="14" y="19.996666666666666" width="42" height="25" as="geometry" />
        </mxCell>
        <mxCell id="MSJdZvLmTwEto3zQjgk4-2" value="Google Cloud Platforma" style="shape=mxgraph.gcp2.google_cloud_platform;fillColor=#F6F6F6;strokeColor=none;shadow=0;gradientColor=none;align=left;fontSize=15;fontStyle=1;spacingLeft=40;spacingTop=-20;" parent="1" vertex="1">
          <mxGeometry x="305" y="-710" width="50" height="50" as="geometry">
            <mxPoint x="20" y="10" as="offset" />
          </mxGeometry>
        </mxCell>
        <mxCell id="MSJdZvLmTwEto3zQjgk4-22" value="" style="group" parent="1" vertex="1" connectable="0">
          <mxGeometry x="790" y="-453" width="70" height="80" as="geometry" />
        </mxCell>
        <mxCell id="MSJdZvLmTwEto3zQjgk4-18" value="" style="strokeColor=#dddddd;shadow=1;strokeWidth=1;rounded=1;absoluteArcSize=1;arcSize=2;" parent="MSJdZvLmTwEto3zQjgk4-22" vertex="1">
          <mxGeometry width="70" height="80" as="geometry" />
        </mxCell>
        <mxCell id="MSJdZvLmTwEto3zQjgk4-16" value="&lt;font color=&quot;#000000&quot;&gt;Cloud&lt;br&gt;Storage&lt;/font&gt;" style="sketch=0;html=1;verticalAlign=top;labelPosition=center;verticalLabelPosition=bottom;align=center;spacingTop=-6;fontSize=11;fontStyle=1;fontColor=#999999;shape=image;aspect=fixed;imageAspect=0;image=data:image/svg+xml,PHN2ZyB4bWxucz0iaHR0cDovL3d3dy53My5vcmcvMjAwMC9zdmciIHhtbG5zOnY9Imh0dHBzOi8vdmVjdGEuaW8vbmFubyIgd2lkdGg9IjIwIiBoZWlnaHQ9IjE2IiB2aWV3Qm94PSIwIDAgMjAgMTYiPiYjeGE7CTxzdHlsZSB0eXBlPSJ0ZXh0L2NzcyI+JiN4YTsJLnN0MHtmaWxsOiM0Mjg1ZjQ7fSYjeGE7CS5zdDF7ZmlsbDojNjY5ZGY2O30mI3hhOwkuc3Qye2ZpbGw6I2FlY2JmYTt9JiN4YTsJLnN0M3tmaWxsOiNmZmY7fSYjeGE7CTwvc3R5bGU+JiN4YTsJPHBhdGggY2xhc3M9InN0MiIgZD0iTTAgMGgyMHY3SDB6Ii8+JiN4YTsJPHBhdGggY2xhc3M9InN0MSIgZD0iTTE4IDBoMnY3aC0yeiIvPiYjeGE7CTxwYXRoIGNsYXNzPSJzdDAiIGQ9Ik0xOCA3bDItN2gtMnoiLz4mI3hhOwk8cGF0aCBjbGFzcz0ic3QxIiBkPSJNMCAwaDJ2N0gweiIvPiYjeGE7CTxnIGNsYXNzPSJzdDMiPiYjeGE7CQk8cGF0aCBkPSJNNCAzaDZ2MUg0eiIvPiYjeGE7CQk8cmVjdCB4PSIxMyIgeT0iMiIgd2lkdGg9IjMiIGhlaWdodD0iMyIgcng9IjEuNSIvPiYjeGE7CTwvZz4mI3hhOwk8cGF0aCBjbGFzcz0ic3QyIiBkPSJNMCA5aDIwdjdIMHoiLz4mI3hhOwk8cGF0aCBjbGFzcz0ic3QxIiBkPSJNMTggOWgydjdoLTJ6Ii8+JiN4YTsJPHBhdGggY2xhc3M9InN0MCIgZD0iTTE4IDE2bDItN2gtMnoiLz4mI3hhOwk8cGF0aCBjbGFzcz0ic3QxIiBkPSJNMCA5aDJ2N0gweiIvPiYjeGE7CTxnIGNsYXNzPSJzdDMiPiYjeGE7CQk8cGF0aCBkPSJNNCAxMmg2djFINHoiLz4mI3hhOwkJPHJlY3QgeD0iMTMiIHk9IjExIiB3aWR0aD0iMyIgaGVpZ2h0PSIzIiByeD0iMS41Ii8+JiN4YTsJPC9nPiYjeGE7PC9zdmc+;" parent="MSJdZvLmTwEto3zQjgk4-22" vertex="1">
          <mxGeometry x="14" y="10" width="42" height="34" as="geometry" />
        </mxCell>
        <mxCell id="E5rdL4SFT-w5dqJYSnaH-15" style="edgeStyle=orthogonalEdgeStyle;rounded=0;orthogonalLoop=1;jettySize=auto;html=1;entryX=0;entryY=0.5;entryDx=0;entryDy=0;strokeWidth=2;strokeColor=#007FFF;shadow=1;" parent="1" source="Zh6aKzVjo9YAihgdkJbR-20" target="Zh6aKzVjo9YAihgdkJbR-24" edge="1">
          <mxGeometry relative="1" as="geometry" />
        </mxCell>
        <mxCell id="E5rdL4SFT-w5dqJYSnaH-18" style="edgeStyle=orthogonalEdgeStyle;rounded=0;orthogonalLoop=1;jettySize=auto;html=1;entryX=0.5;entryY=1;entryDx=0;entryDy=0;strokeColor=#007FFF;strokeWidth=2;shadow=1;endArrow=none;endFill=0;" parent="1" source="Zh6aKzVjo9YAihgdkJbR-24" target="MSJdZvLmTwEto3zQjgk4-18" edge="1">
          <mxGeometry relative="1" as="geometry" />
        </mxCell>
        <mxCell id="E5rdL4SFT-w5dqJYSnaH-11" value="" style="group" parent="1" vertex="1" connectable="0">
          <mxGeometry x="520" y="-320" width="170" height="60" as="geometry" />
        </mxCell>
        <mxCell id="Zh6aKzVjo9YAihgdkJbR-24" value="" style="strokeColor=#dddddd;shadow=1;strokeWidth=1;rounded=1;absoluteArcSize=1;arcSize=2;" parent="E5rdL4SFT-w5dqJYSnaH-11" vertex="1">
          <mxGeometry width="170" height="60" as="geometry" />
        </mxCell>
        <mxCell id="Zh6aKzVjo9YAihgdkJbR-23" value="&lt;b&gt;Run Conteiner Image&lt;/b&gt;&lt;div&gt;&lt;font color=&quot;#b3b3b3&quot;&gt;Cloud Run&lt;/font&gt;&lt;/div&gt;" style="editableCssRules=.*;html=1;shape=image;verticalLabelPosition=bottom;labelBackgroundColor=#ffffff;verticalAlign=top;aspect=fixed;imageAspect=0;image=data:image/svg+xml,PHN2ZyB4bWxucz0iaHR0cDovL3d3dy53My5vcmcvMjAwMC9zdmciIHhtbG5zOnY9Imh0dHBzOi8vdmVjdGEuaW8vbmFubyIgd2lkdGg9IjM2NS40NjQ5OTY3NzA0MjQ5MyIgaGVpZ2h0PSIzNzkuMjIyOTk0NDYzNTc3OTUiIHZpZXdCb3g9IjAgMCA5Ni42OTU5OTkxNDU1MDc4MSAxMDAuMzM1OTk4NTM1MTU2MjUiPiYjeGE7PHN0eWxlIHR5cGU9InRleHQvY3NzIj4mI3hhOwkuc3Qwe2ZpbGw6IzQyODVmNDt9JiN4YTsJLnN0MXtmaWxsOiNhZWNiZmE7fSYjeGE7PC9zdHlsZT4mI3hhOwk8cGF0aCBjbGFzcz0ic3QwIiBkPSJNMjkuNzk0IDEwMC4zMzZMNDYuOTIgNTAuMTY4aDQ5Ljc3NnpNMCA5OS42NzFsMTIuOTc2LTQ5LjUwMkgyOS4yMkwxNi44OTcgOTIuMDU0eiIvPiYjeGE7CTxwYXRoIGNsYXNzPSJzdDEiIGQ9Ik0yOS43OTQgMEw0Ni45MiA1MC4xNjhoNDkuNzc2ek0wIC42NjZsMTIuOTc2IDQ5LjUwMkgyOS4yMkwxNi44OTcgOC4yODN6Ii8+JiN4YTs8L3N2Zz4=;align=left;spacingLeft=30;spacingTop=-30;" parent="E5rdL4SFT-w5dqJYSnaH-11" vertex="1">
          <mxGeometry x="12.5" y="20" width="20" height="20" as="geometry" />
        </mxCell>
        <mxCell id="yCMece_1lX82KAJI01BX-5" style="edgeStyle=orthogonalEdgeStyle;rounded=0;orthogonalLoop=1;jettySize=auto;html=1;entryX=0.5;entryY=1;entryDx=0;entryDy=0;strokeWidth=2;strokeColor=#007FFF;shadow=1;endArrow=none;endFill=0;" parent="1" source="Zh6aKzVjo9YAihgdkJbR-24" target="yCMece_1lX82KAJI01BX-3" edge="1">
          <mxGeometry relative="1" as="geometry" />
        </mxCell>
        <mxCell id="E5rdL4SFT-w5dqJYSnaH-19" style="edgeStyle=orthogonalEdgeStyle;rounded=0;orthogonalLoop=1;jettySize=auto;html=1;entryX=0.5;entryY=1;entryDx=0;entryDy=0;strokeColor=#007FFF;strokeWidth=2;shadow=1;endArrow=none;endFill=0;" parent="1" source="Zh6aKzVjo9YAihgdkJbR-24" target="Zh6aKzVjo9YAihgdkJbR-28" edge="1">
          <mxGeometry relative="1" as="geometry" />
        </mxCell>
        <mxCell id="77TPbMftFl7pItSL4d7y-2" value="" style="group" parent="1" vertex="1" connectable="0">
          <mxGeometry x="120" y="-550" width="90" height="120" as="geometry" />
        </mxCell>
        <mxCell id="Zh6aKzVjo9YAihgdkJbR-12" value="&lt;b&gt;&lt;font color=&quot;#000000&quot;&gt;Development&lt;br&gt;Team&lt;/font&gt;&lt;/b&gt;" style="rounded=1;absoluteArcSize=1;arcSize=2;html=1;strokeColor=none;gradientColor=none;shadow=1;dashed=0;strokeColor=none;fontSize=12;fontColor=#9E9E9E;align=left;verticalAlign=top;spacing=10;spacingTop=-4;fillColor=#F3E5F5;" parent="77TPbMftFl7pItSL4d7y-2" vertex="1">
          <mxGeometry width="90" height="120" as="geometry" />
        </mxCell>
        <mxCell id="Zh6aKzVjo9YAihgdkJbR-13" value="" style="strokeColor=#dddddd;fillColor=#ffffff;shadow=1;strokeWidth=1;rounded=1;absoluteArcSize=1;arcSize=2;labelPosition=center;verticalLabelPosition=middle;align=center;verticalAlign=bottom;spacingLeft=0;fontColor=#999999;fontSize=12;whiteSpace=wrap;spacingBottom=2;html=1;" parent="77TPbMftFl7pItSL4d7y-2" vertex="1">
          <mxGeometry x="10" y="40" width="70" height="70" as="geometry" />
        </mxCell>
        <mxCell id="Zh6aKzVjo9YAihgdkJbR-14" value="" style="dashed=0;connectable=0;html=1;fillColor=#757575;strokeColor=none;shape=mxgraph.gcp2.laptop;part=1;" parent="Zh6aKzVjo9YAihgdkJbR-13" vertex="1">
          <mxGeometry x="0.5" width="50" height="33" relative="1" as="geometry">
            <mxPoint x="-25" y="18.5" as="offset" />
          </mxGeometry>
        </mxCell>
        <mxCell id="77TPbMftFl7pItSL4d7y-3" value="" style="group" parent="1" vertex="1" connectable="0">
          <mxGeometry x="1030" y="-670" width="95" height="190" as="geometry" />
        </mxCell>
        <mxCell id="Zh6aKzVjo9YAihgdkJbR-31" value="&lt;b&gt;&lt;font color=&quot;#000000&quot;&gt;Users&lt;/font&gt;&lt;/b&gt;" style="rounded=1;absoluteArcSize=1;arcSize=2;html=1;strokeColor=none;gradientColor=none;shadow=1;dashed=0;strokeColor=none;fontSize=12;fontColor=#9E9E9E;align=left;verticalAlign=top;spacing=10;spacingTop=-4;fillColor=#F1F8E9;container=0;glass=0;" parent="77TPbMftFl7pItSL4d7y-3" vertex="1">
          <mxGeometry x="5" width="90" height="190" as="geometry" />
        </mxCell>
        <mxCell id="Zh6aKzVjo9YAihgdkJbR-32" value="" style="strokeColor=#dddddd;fillColor=#ffffff;shadow=1;strokeWidth=1;rounded=1;absoluteArcSize=1;arcSize=2;labelPosition=center;verticalLabelPosition=middle;align=center;verticalAlign=bottom;spacingLeft=0;fontColor=#999999;fontSize=12;whiteSpace=wrap;spacingBottom=2;html=1;container=0;" parent="77TPbMftFl7pItSL4d7y-3" vertex="1">
          <mxGeometry x="15" y="30" width="70" height="69" as="geometry" />
        </mxCell>
        <mxCell id="Zh6aKzVjo9YAihgdkJbR-34" value="" style="strokeColor=#dddddd;fillColor=#ffffff;shadow=1;strokeWidth=1;rounded=1;absoluteArcSize=1;arcSize=2;labelPosition=center;verticalLabelPosition=middle;align=center;verticalAlign=bottom;spacingLeft=0;fontColor=#999999;fontSize=12;whiteSpace=wrap;spacingBottom=2;html=1;container=0;" parent="77TPbMftFl7pItSL4d7y-3" vertex="1">
          <mxGeometry x="15" y="115" width="70" height="65" as="geometry" />
        </mxCell>
        <mxCell id="Zh6aKzVjo9YAihgdkJbR-33" value="" style="dashed=0;connectable=0;html=1;fillColor=#757575;strokeColor=none;shape=mxgraph.gcp2.laptop;part=1;container=0;" parent="77TPbMftFl7pItSL4d7y-3" vertex="1">
          <mxGeometry x="25" y="48.5" width="50" height="33" as="geometry">
            <mxPoint x="-25" y="18.5" as="offset" />
          </mxGeometry>
        </mxCell>
        <mxCell id="Zh6aKzVjo9YAihgdkJbR-35" value="" style="dashed=0;connectable=0;html=1;fillColor=#757575;strokeColor=none;shape=mxgraph.gcp2.mobile_devices;part=1;container=0;" parent="77TPbMftFl7pItSL4d7y-3" vertex="1">
          <mxGeometry x="25" y="131.75" width="50" height="36.5" as="geometry">
            <mxPoint x="-25" y="16.75" as="offset" />
          </mxGeometry>
        </mxCell>
        <mxCell id="77TPbMftFl7pItSL4d7y-5" value="" style="group" parent="1" vertex="1" connectable="0">
          <mxGeometry x="880" y="-453" width="70" height="80" as="geometry" />
        </mxCell>
        <mxCell id="yCMece_1lX82KAJI01BX-3" value="" style="strokeColor=#dddddd;shadow=1;strokeWidth=1;rounded=1;absoluteArcSize=1;arcSize=2;align=right;fontStyle=1" parent="77TPbMftFl7pItSL4d7y-5" vertex="1">
          <mxGeometry width="70" height="80" as="geometry" />
        </mxCell>
        <mxCell id="yCMece_1lX82KAJI01BX-2" value="&lt;font color=&quot;#000000&quot;&gt;Cloud&lt;br&gt;Tasks&lt;/font&gt;" style="sketch=0;html=1;verticalAlign=top;labelPosition=center;verticalLabelPosition=bottom;align=center;spacingTop=-6;fontSize=11;fontStyle=1;fontColor=#999999;shape=image;aspect=fixed;imageAspect=0;image=data:image/svg+xml,PHN2ZyB4bWxucz0iaHR0cDovL3d3dy53My5vcmcvMjAwMC9zdmciIHhtbG5zOnY9Imh0dHBzOi8vdmVjdGEuaW8vbmFubyIgd2lkdGg9IjM3Ni4zNDk5ODYzODk2NDkzNiIgaGVpZ2h0PSIzMDcuNjg0MDE3OTkzMzY5MjUiIHZpZXdCb3g9IjAgMCA5OS41NzU5OTYzOTg5MjU3OCA4MS40MDgwMDQ3NjA3NDIxOSI+JiN4YTs8c3R5bGUgdHlwZT0idGV4dC9jc3MiPiYjeGE7CS5zdDB7ZmlsbDojNjY5ZGY2O30mI3hhOwkuc3Qxe2ZpbGw6IzQyODVmNDt9JiN4YTs8L3N0eWxlPiYjeGE7CTxwYXRoIGNsYXNzPSJzdDAiIGQ9Ik0wIDB2NDAuODc1aDEwVjB6bTIyLjM5NCAwdjQwLjg3NWgxMFYwem0yMi4zOTQgMHY0MC44NzVoMTBWMHptMjIuMzk0IDB2NDAuODc1aDEwVjB6bTIyLjM5NCAwdjQwLjg3NWgxMFYweiIvPiYjeGE7CTxwYXRoIGNsYXNzPSJzdDEiIGQ9Ik04OS41NzYgNDAuODc1djQwLjUzM2gxMFY0MC44NzV6bS0yMi4zOTQgMHY0MC41MzNoMTBWNDAuODc1em0tMjIuMzk0IDB2NDAuNTMzaDEwVjQwLjg3NXptLTIyLjM5NCAwdjQwLjUzM2gxMFY0MC44NzV6TTAgNDAuODc1djQwLjUzM2gxMFY0MC44NzV6Ii8+JiN4YTs8L3N2Zz4=;" parent="77TPbMftFl7pItSL4d7y-5" vertex="1">
          <mxGeometry x="14.00333333333333" y="10" width="42" height="34" as="geometry" />
        </mxCell>
        <mxCell id="77TPbMftFl7pItSL4d7y-7" value="" style="group" parent="1" vertex="1" connectable="0">
          <mxGeometry x="305" y="-630" width="170" height="60" as="geometry" />
        </mxCell>
        <mxCell id="77TPbMftFl7pItSL4d7y-8" value="" style="strokeColor=#dddddd;shadow=1;strokeWidth=1;rounded=1;absoluteArcSize=1;arcSize=2;" parent="77TPbMftFl7pItSL4d7y-7" vertex="1">
          <mxGeometry width="170" height="60" as="geometry" />
        </mxCell>
        <mxCell id="77TPbMftFl7pItSL4d7y-9" value="&lt;div style=&quot;text-align: left;&quot;&gt;&lt;b&gt;Build WebApp&lt;/b&gt;&lt;/div&gt;&lt;div style=&quot;text-align: left;&quot;&gt;&lt;span style=&quot;font-family: &amp;quot;Google Sans&amp;quot;, &amp;quot;Noto Sans&amp;quot;, &amp;quot;Noto Sans JP&amp;quot;, &amp;quot;Noto Sans KR&amp;quot;, &amp;quot;Noto Naskh Arabic&amp;quot;, &amp;quot;Noto Sans Thai&amp;quot;, &amp;quot;Noto Sans Hebrew&amp;quot;, &amp;quot;Noto Sans Bengali&amp;quot;, sans-serif; text-wrap: wrap;&quot;&gt;&lt;font color=&quot;#b3b3b3&quot; style=&quot;font-size: 12px;&quot;&gt;Cloud Build&lt;/font&gt;&lt;/span&gt;&lt;br&gt;&lt;/div&gt;" style="editableCssRules=.*;html=1;shape=image;verticalLabelPosition=bottom;labelBackgroundColor=#ffffff;verticalAlign=top;aspect=fixed;imageAspect=0;image=data:image/svg+xml,PHN2ZyB4bWxucz0iaHR0cDovL3d3dy53My5vcmcvMjAwMC9zdmciIHhtbG5zOnY9Imh0dHBzOi8vdmVjdGEuaW8vbmFubyIgd2lkdGg9IjE3LjMyOTk5OTkyMzcwNjA1NSIgaGVpZ2h0PSIxOS42MTAwMDA2MTAzNTE1NjIiIHZpZXdCb3g9IjAgMCAxNy4zMjk5OTk5MjM3MDYwNTUgMTkuNjEwMDAwNjEwMzUxNTYyIj4mI3hhOwk8c3R5bGUgdHlwZT0idGV4dC9jc3MiPiYjeGE7CS5zdDB7ZmlsbDojNDI4NWY0O30mI3hhOwkuc3Qxe2ZpbGw6IzY2OWRmNjt9JiN4YTsJLnN0MntmaWxsOiNhZWNiZmE7fSYjeGE7CTwvc3R5bGU+JiN4YTsJPHBhdGggY2xhc3M9InN0MCIgZD0iTTEyLjE4IDcuOThMMTEgNy4yOWwtMy41MiA2LjEgMS4xOC42OCAzLjUyLTIuMDN6IiBmaWxsPSIjNDI4NWY0Ii8+JiN4YTsJPHBhdGggY2xhc3M9InN0MSIgZD0iTTYuMzIgMTIuNzJsMy41My02LjA5LTEuMTktLjY5LTMuNTIgMi4wNHY0LjA2eiIgZmlsbD0iIzY2OWRmNiIvPiYjeGE7CTxwYXRoIGNsYXNzPSJzdDIiIGQ9Ik0zLjc1IDcuOThMMCA1LjgxdjkuMmw3Ljk3IDQuNnYtNC4zM2wtNC4yMi0yLjQ0em05LjEzLTEuMmwzLjc2LTIuMTdMOC42NiAwIC42OCA0LjYxbDMuNzYgMi4xNyA0LjIyLTIuNDR6TTkuMzUgMTkuNjFsNy45OC00LjZ2LTkuMmwtMy43NiAyLjE3djQuODZsLTQuMjIgMi40NHoiIGZpbGw9IiNhZWNiZmEiLz4mI3hhOzwvc3ZnPg==;spacingLeft=130;spacingTop=-40;" parent="77TPbMftFl7pItSL4d7y-7" vertex="1">
          <mxGeometry x="15.5" y="10" width="34" height="40" as="geometry" />
        </mxCell>
        <mxCell id="77TPbMftFl7pItSL4d7y-10" style="edgeStyle=orthogonalEdgeStyle;rounded=0;orthogonalLoop=1;jettySize=auto;html=1;entryX=0.5;entryY=1;entryDx=0;entryDy=0;strokeWidth=2;strokeColor=#007FFF;shadow=1;" parent="1" source="Zh6aKzVjo9YAihgdkJbR-7" target="77TPbMftFl7pItSL4d7y-8" edge="1">
          <mxGeometry relative="1" as="geometry" />
        </mxCell>
        <mxCell id="77TPbMftFl7pItSL4d7y-11" value="&lt;b&gt;&lt;font color=&quot;#007fff&quot;&gt;FrontEnd&lt;/font&gt;&lt;/b&gt;" style="edgeLabel;html=1;align=center;verticalAlign=middle;resizable=0;points=[];textShadow=1;labelBorderColor=none;labelBackgroundColor=default;" parent="77TPbMftFl7pItSL4d7y-10" vertex="1" connectable="0">
          <mxGeometry x="-0.1821" y="1" relative="1" as="geometry">
            <mxPoint as="offset" />
          </mxGeometry>
        </mxCell>
        <mxCell id="77TPbMftFl7pItSL4d7y-13" value="" style="group" parent="1" vertex="1" connectable="0">
          <mxGeometry x="520" y="-630" width="170" height="60" as="geometry" />
        </mxCell>
        <mxCell id="77TPbMftFl7pItSL4d7y-14" value="" style="strokeColor=#dddddd;shadow=1;strokeWidth=1;rounded=1;absoluteArcSize=1;arcSize=2;" parent="77TPbMftFl7pItSL4d7y-13" vertex="1">
          <mxGeometry width="170" height="60" as="geometry" />
        </mxCell>
        <mxCell id="77TPbMftFl7pItSL4d7y-15" value="&lt;b&gt;Run WebApp&lt;/b&gt;&lt;div&gt;&lt;font color=&quot;#b3b3b3&quot;&gt;Cloud Run&lt;/font&gt;&lt;/div&gt;" style="editableCssRules=.*;html=1;shape=image;verticalLabelPosition=bottom;labelBackgroundColor=#ffffff;verticalAlign=top;aspect=fixed;imageAspect=0;image=data:image/svg+xml,PHN2ZyB4bWxucz0iaHR0cDovL3d3dy53My5vcmcvMjAwMC9zdmciIHhtbG5zOnY9Imh0dHBzOi8vdmVjdGEuaW8vbmFubyIgd2lkdGg9IjM2NS40NjQ5OTY3NzA0MjQ5MyIgaGVpZ2h0PSIzNzkuMjIyOTk0NDYzNTc3OTUiIHZpZXdCb3g9IjAgMCA5Ni42OTU5OTkxNDU1MDc4MSAxMDAuMzM1OTk4NTM1MTU2MjUiPiYjeGE7PHN0eWxlIHR5cGU9InRleHQvY3NzIj4mI3hhOwkuc3Qwe2ZpbGw6IzQyODVmNDt9JiN4YTsJLnN0MXtmaWxsOiNhZWNiZmE7fSYjeGE7PC9zdHlsZT4mI3hhOwk8cGF0aCBjbGFzcz0ic3QwIiBkPSJNMjkuNzk0IDEwMC4zMzZMNDYuOTIgNTAuMTY4aDQ5Ljc3NnpNMCA5OS42NzFsMTIuOTc2LTQ5LjUwMkgyOS4yMkwxNi44OTcgOTIuMDU0eiIvPiYjeGE7CTxwYXRoIGNsYXNzPSJzdDEiIGQ9Ik0yOS43OTQgMEw0Ni45MiA1MC4xNjhoNDkuNzc2ek0wIC42NjZsMTIuOTc2IDQ5LjUwMkgyOS4yMkwxNi44OTcgOC4yODN6Ii8+JiN4YTs8L3N2Zz4=;align=left;spacingLeft=30;spacingTop=-30;" parent="77TPbMftFl7pItSL4d7y-13" vertex="1">
          <mxGeometry x="12.5" y="20" width="20" height="20" as="geometry" />
        </mxCell>
        <mxCell id="77TPbMftFl7pItSL4d7y-16" style="edgeStyle=orthogonalEdgeStyle;rounded=0;orthogonalLoop=1;jettySize=auto;html=1;entryX=0;entryY=0.5;entryDx=0;entryDy=0;strokeWidth=2;strokeColor=#007FFF;" parent="1" source="77TPbMftFl7pItSL4d7y-8" target="77TPbMftFl7pItSL4d7y-14" edge="1">
          <mxGeometry relative="1" as="geometry" />
        </mxCell>
        <mxCell id="77TPbMftFl7pItSL4d7y-17" style="edgeStyle=orthogonalEdgeStyle;rounded=0;orthogonalLoop=1;jettySize=auto;html=1;entryX=1;entryY=0.25;entryDx=0;entryDy=0;strokeWidth=2;verticalAlign=bottom;align=center;shadow=1;" parent="1" source="Zh6aKzVjo9YAihgdkJbR-31" target="77TPbMftFl7pItSL4d7y-14" edge="1">
          <mxGeometry relative="1" as="geometry">
            <mxPoint x="960" y="-630" as="sourcePoint" />
          </mxGeometry>
        </mxCell>
        <mxCell id="77TPbMftFl7pItSL4d7y-18" value="&lt;b&gt;&lt;font style=&quot;font-size: 12px;&quot;&gt;Request&lt;/font&gt;&lt;/b&gt;" style="edgeLabel;html=1;align=left;verticalAlign=bottom;resizable=0;points=[];textShadow=0;labelBackgroundColor=none;" parent="77TPbMftFl7pItSL4d7y-17" vertex="1" connectable="0">
          <mxGeometry x="-0.3633" relative="1" as="geometry">
            <mxPoint as="offset" />
          </mxGeometry>
        </mxCell>
        <mxCell id="77TPbMftFl7pItSL4d7y-19" style="edgeStyle=orthogonalEdgeStyle;rounded=0;orthogonalLoop=1;jettySize=auto;html=1;entryX=0.5;entryY=0;entryDx=0;entryDy=0;strokeWidth=2;strokeColor=#007FFF;" parent="1" source="77TPbMftFl7pItSL4d7y-14" target="Zh6aKzVjo9YAihgdkJbR-24" edge="1">
          <mxGeometry relative="1" as="geometry" />
        </mxCell>
        <mxCell id="77TPbMftFl7pItSL4d7y-20" value="&lt;b&gt;&lt;font style=&quot;font-size: 12px;&quot; color=&quot;#007fff&quot;&gt;Request&lt;/font&gt;&lt;/b&gt;" style="edgeLabel;html=1;align=center;verticalAlign=middle;resizable=0;points=[];rotation=-90;labelPosition=center;verticalLabelPosition=middle;textDirection=ltr;textShadow=0;labelBackgroundColor=none;" parent="77TPbMftFl7pItSL4d7y-19" vertex="1" connectable="0">
          <mxGeometry x="-0.5564" y="2" relative="1" as="geometry">
            <mxPoint x="-10" y="-2" as="offset" />
          </mxGeometry>
        </mxCell>
        <mxCell id="77TPbMftFl7pItSL4d7y-21" style="edgeStyle=orthogonalEdgeStyle;rounded=0;orthogonalLoop=1;jettySize=auto;html=1;strokeWidth=2;strokeColor=#007FFF;entryX=0.705;entryY=1.017;entryDx=0;entryDy=0;entryPerimeter=0;exitX=0.692;exitY=-0.003;exitDx=0;exitDy=0;exitPerimeter=0;" parent="1" source="Zh6aKzVjo9YAihgdkJbR-24" target="77TPbMftFl7pItSL4d7y-14" edge="1">
          <mxGeometry relative="1" as="geometry">
            <mxPoint x="660" y="-510" as="targetPoint" />
            <Array as="points">
              <mxPoint x="640" y="-320" />
            </Array>
          </mxGeometry>
        </mxCell>
        <mxCell id="77TPbMftFl7pItSL4d7y-22" value="&lt;b&gt;&lt;font color=&quot;#007fff&quot; style=&quot;font-size: 12px;&quot;&gt;Response&lt;/font&gt;&lt;/b&gt;" style="edgeLabel;html=1;align=center;verticalAlign=middle;resizable=0;points=[];rotation=-90;labelBackgroundColor=none;" parent="77TPbMftFl7pItSL4d7y-21" vertex="1" connectable="0">
          <mxGeometry x="-0.6" y="-2" relative="1" as="geometry">
            <mxPoint x="8" y="8" as="offset" />
          </mxGeometry>
        </mxCell>
        <mxCell id="77TPbMftFl7pItSL4d7y-23" style="edgeStyle=orthogonalEdgeStyle;rounded=0;orthogonalLoop=1;jettySize=auto;html=1;exitX=1;exitY=0.75;exitDx=0;exitDy=0;entryX=-0.007;entryY=0.574;entryDx=0;entryDy=0;strokeWidth=2;entryPerimeter=0;" parent="1" source="77TPbMftFl7pItSL4d7y-14" target="Zh6aKzVjo9YAihgdkJbR-31" edge="1">
          <mxGeometry relative="1" as="geometry">
            <Array as="points">
              <mxPoint x="840" y="-585" />
              <mxPoint x="840" y="-560" />
              <mxPoint x="940" y="-560" />
            </Array>
          </mxGeometry>
        </mxCell>
        <mxCell id="77TPbMftFl7pItSL4d7y-24" value="&lt;b&gt;Response&lt;/b&gt;" style="edgeLabel;html=1;align=center;verticalAlign=middle;resizable=0;points=[];labelBackgroundColor=none;" parent="77TPbMftFl7pItSL4d7y-23" vertex="1" connectable="0">
          <mxGeometry x="0.5068" y="4" relative="1" as="geometry">
            <mxPoint y="14" as="offset" />
          </mxGeometry>
        </mxCell>
        <mxCell id="77TPbMftFl7pItSL4d7y-27" style="edgeStyle=orthogonalEdgeStyle;rounded=0;orthogonalLoop=1;jettySize=auto;html=1;entryX=0.5;entryY=0;entryDx=0;entryDy=0;strokeWidth=2;strokeColor=#007FFF;endArrow=none;endFill=0;" parent="1" source="Zh6aKzVjo9YAihgdkJbR-24" target="MSJdZvLmTwEto3zQjgk4-12" edge="1">
          <mxGeometry relative="1" as="geometry" />
        </mxCell>
        <mxCell id="77TPbMftFl7pItSL4d7y-29" style="edgeStyle=orthogonalEdgeStyle;rounded=0;orthogonalLoop=1;jettySize=auto;html=1;exitX=0.5;exitY=1;exitDx=0;exitDy=0;strokeWidth=2;strokeColor=#007FFF;endArrow=none;endFill=0;" parent="1" source="Zh6aKzVjo9YAihgdkJbR-24" target="MSJdZvLmTwEto3zQjgk4-6" edge="1">
          <mxGeometry relative="1" as="geometry" />
        </mxCell>
      </root>
    </mxGraphModel>
  </diagram>
</mxfile>
